<?xml version="1.0" encoding="UTF-8" standalone="no"?>
<!-- Created with Inkscape (http://www.inkscape.org/) -->

<svg
   width="191.79393mm"
   height="63.508457mm"
   viewBox="0 0 191.79393 63.508457"
   version="1.1"
   id="svg5"
   inkscape:version="1.1.1 (3bf5ae0d25, 2021-09-20)"
   sodipodi:docname="tweet_4.svg"
   xmlns:inkscape="http://www.inkscape.org/namespaces/inkscape"
   xmlns:sodipodi="http://sodipodi.sourceforge.net/DTD/sodipodi-0.dtd"
   xmlns="http://www.w3.org/2000/svg"
   xmlns:svg="http://www.w3.org/2000/svg">
  <sodipodi:namedview
     id="namedview7"
     pagecolor="#ffffff"
     bordercolor="#666666"
     borderopacity="1.0"
     inkscape:pageshadow="2"
     inkscape:pageopacity="0.0"
     inkscape:pagecheckerboard="0"
     inkscape:document-units="mm"
     showgrid="false"
     inkscape:zoom="1"
     inkscape:cx="546"
     inkscape:cy="256.5"
     inkscape:window-width="2560"
     inkscape:window-height="1440"
     inkscape:window-x="2560"
     inkscape:window-y="0"
     inkscape:window-maximized="1"
     inkscape:current-layer="layer1"
     fit-margin-top="0"
     fit-margin-left="0"
     fit-margin-right="0"
     fit-margin-bottom="0">
    <inkscape:grid
       type="xygrid"
       id="grid1689"
       originx="-10.469558"
       originy="-68.680384" />
  </sodipodi:namedview>
  <defs
     id="defs2">
    <marker
       style="overflow:visible"
       id="Arrow2Lend"
       refX="0"
       refY="0"
       orient="auto"
       inkscape:stockid="Arrow2Lend"
       inkscape:isstock="true">
      <path
         transform="matrix(-1.1,0,0,-1.1,-1.1,0)"
         d="M 8.7185878,4.0337352 -2.2072895,0.01601326 8.7185884,-4.0017078 c -1.7454984,2.3720609 -1.7354408,5.6174519 -6e-7,8.035443 z"
         style="fill:context-stroke;fill-rule:evenodd;stroke:context-stroke;stroke-width:0.625;stroke-linejoin:round"
         id="path9025" />
    </marker>
    <symbol
       id="x"
       overflow="visible">
      <path
         d="m 18.766,-1.125 c -0.96875,0.5 -1.9805,0.875 -3.0312,1.125 -1.043,0.25781 -2.1367,0.39062 -3.2812,0.39062 -3.3984,0 -6.0898,-0.94531 -8.0781,-2.8438 -1.9922,-1.9062 -2.9844,-4.4844 -2.9844,-7.7344 0,-3.2578 0.99219,-5.8359 2.9844,-7.7344 1.9883,-1.9062 4.6797,-2.8594 8.0781,-2.8594 1.1445,0 2.2383,0.13281 3.2812,0.39062 1.0508,0.25 2.0625,0.625 3.0312,1.125 v 4.2188 c -0.98047,-0.65625 -1.9453,-1.1406 -2.8906,-1.4531 -0.94922,-0.3125 -1.9492,-0.46875 -3,-0.46875 -1.875,0 -3.3516,0.60547 -4.4219,1.8125 -1.0742,1.1992 -1.6094,2.8555 -1.6094,4.9688 0,2.1055 0.53516,3.7617 1.6094,4.9688 1.0703,1.1992 2.5469,1.7969 4.4219,1.7969 1.0508,0 2.0508,-0.14844 3,-0.45312 0.94531,-0.3125 1.9102,-0.80078 2.8906,-1.4688 z"
         id="path1081" />
    </symbol>
    <symbol
       id="d"
       overflow="visible">
      <path
         d="m 13.734,-11.141 c -0.4375,-0.19531 -0.87109,-0.34375 -1.2969,-0.4375 -0.41797,-0.10156 -0.83984,-0.15625 -1.2656,-0.15625 -1.2617,0 -2.2305,0.40625 -2.9062,1.2188 -0.67969,0.80469 -1.0156,1.9531 -1.0156,3.4531 v 7.0625 H 2.3591 v -15.312 h 4.8906 v 2.5156 c 0.625,-1 1.3438,-1.7266 2.1562,-2.1875 0.82031,-0.46875 1.8008,-0.70312 2.9375,-0.70312 0.16406,0 0.34375,0.01172 0.53125,0.03125 0.19531,0.01172 0.47656,0.03906 0.84375,0.07813 z"
         id="path1084" />
    </symbol>
    <symbol
       id="a"
       overflow="visible">
      <path
         d="m 17.641,-7.7031 v 1.4062 H 6.188 c 0.125,1.1484 0.53906,2.0078 1.25,2.5781 0.70703,0.57422 1.7031,0.85938 2.9844,0.85938 1.0312,0 2.082,-0.14844 3.1562,-0.45312 1.082,-0.3125 2.1914,-0.77344 3.3281,-1.3906 v 3.7656 c -1.1562,0.4375 -2.3125,0.76562 -3.4688,0.98438 -1.1562,0.22656 -2.3125,0.34375 -3.4688,0.34375 -2.7734,0 -4.9297,-0.70312 -6.4688,-2.1094 -1.5312,-1.4062 -2.2969,-3.3789 -2.2969,-5.9219 0,-2.5 0.75391,-4.4609 2.2656,-5.8906 1.5078,-1.4375 3.582,-2.1562 6.2188,-2.1562 2.4062,0 4.332,0.73047 5.7812,2.1875 1.4453,1.4492 2.1719,3.3828 2.1719,5.7969 z m -5.0312,-1.625 c 0,-0.92578 -0.27344,-1.6719 -0.8125,-2.2344 -0.54297,-0.57031 -1.25,-0.85938 -2.125,-0.85938 -0.94922,0 -1.7188,0.26562 -2.3125,0.79688 -0.5937,0.53126 -0.96484,1.2969 -1.1094,2.2969 z"
         id="path1087" />
    </symbol>
    <symbol
       id="l"
       overflow="visible">
      <path
         d="m 9.2188,-6.8906 c -1.0234,0 -1.793,0.17188 -2.3125,0.51562 -0.51172,0.34375 -0.76562,0.85547 -0.76562,1.5312 0,0.625 0.20703,1.1172 0.625,1.4688 0.41406,0.34375 0.98828,0.51562 1.7188,0.51562 0.92578,0 1.7031,-0.32812 2.3281,-0.98438 0.63281,-0.66406 0.95312,-1.4922 0.95312,-2.4844 v -0.5625 z m 7.4688,-1.8438 V 0 h -4.9219 v -2.2656 c -0.65625,0.92969 -1.3984,1.6055 -2.2188,2.0312 -0.82422,0.41406 -1.8242,0.625 -3,0.625 -1.5859,0 -2.8711,-0.45703 -3.8594,-1.375 -0.99219,-0.92578 -1.4844,-2.1289 -1.4844,-3.6094 0,-1.7891 0.61328,-3.1016 1.8438,-3.9375 1.2383,-0.84375 3.1797,-1.2656 5.8281,-1.2656 h 2.8906 v -0.39062 c 0,-0.76953 -0.30859,-1.332 -0.92188,-1.6875 -0.61719,-0.36328 -1.5703,-0.54688 -2.8594,-0.54688 -1.0547,0 -2.0312,0.10547 -2.9375,0.3125 -0.89844,0.21094 -1.7305,0.52344 -2.5,0.9375 v -3.7344 c 1.0391,-0.25 2.0859,-0.44141 3.1406,-0.57812 1.0625,-0.13281 2.125,-0.20312 3.1875,-0.20312 2.7578,0 4.75,0.54688 5.9688,1.6406 1.2266,1.0859 1.8438,2.8555 1.8438,5.3125 z"
         id="path1090" />
    </symbol>
    <symbol
       id="c"
       overflow="visible">
      <path
         d="m 7.7031,-19.656 v 4.3438 H 12.75 v 3.5 H 7.7031 v 6.5 c 0,0.71094 0.14062,1.1875 0.42188,1.4375 0.28126,0.25 0.83594,0.375 1.6719,0.375 h 2.5156 v 3.5 h -4.1875 c -1.9375,0 -3.3125,-0.39844 -4.125,-1.2031 -0.80469,-0.8125 -1.2031,-2.1797 -1.2031,-4.1094 v -6.5 h -2.4219 v -3.5 h 2.4219 v -4.3438 z"
         id="path1093" />
    </symbol>
    <symbol
       id="k"
       overflow="visible">
      <path
         d="m 12.766,-13.078 v -8.2031 h 4.9219 V -1e-4 H 12.766 v -2.2188 c -0.66797,0.90625 -1.4062,1.5703 -2.2188,1.9844 -0.8126,0.4141 -1.7578,0.625 -2.8281,0.625 -1.8867,0 -3.4336,-0.75 -4.6406,-2.25 -1.2109,-1.5 -1.8125,-3.4258 -1.8125,-5.7812 0,-2.3633 0.60156,-4.2969 1.8125,-5.7969 1.207,-1.5 2.7539,-2.25 4.6406,-2.25 1.0625,0 2,0.21484 2.8125,0.64062 0.82031,0.42969 1.5664,1.0859 2.2344,1.9688 z m -3.2188,9.9219 c 1.0391,0 1.8359,-0.37891 2.3906,-1.1406 0.55078,-0.76953 0.82812,-1.8828 0.82812,-3.3438 0,-1.457 -0.27734,-2.5664 -0.82812,-3.3281 -0.55469,-0.76953 -1.3516,-1.1562 -2.3906,-1.1562 -1.043,0 -1.8398,0.38672 -2.3906,1.1562 -0.55469,0.76172 -0.82812,1.8711 -0.82812,3.3281 0,1.4609 0.27344,2.5742 0.82812,3.3438 0.55078,0.76172 1.3477,1.1406 2.3906,1.1406 z"
         id="path1096" />
    </symbol>
    <symbol
       id="j"
       overflow="visible">
      <path
         d="m 10.5,-3.1562 c 1.0508,0 1.8516,-0.37891 2.4062,-1.1406 0.55078,-0.76953 0.82812,-1.8828 0.82812,-3.3438 0,-1.457 -0.27734,-2.5664 -0.82812,-3.3281 -0.55469,-0.76953 -1.3555,-1.1562 -2.4062,-1.1562 -1.0547,0 -1.8594,0.38672 -2.4219,1.1562 -0.55469,0.77344 -0.82812,1.8828 -0.82812,3.3281 0,1.4492 0.27344,2.5586 0.82812,3.3281 0.5625,0.77344 1.3672,1.1562 2.4219,1.1562 z m -3.25,-9.9219 c 0.67578,-0.88281 1.4219,-1.5391 2.2344,-1.9688 0.82031,-0.42578 1.7656,-0.64062 2.8281,-0.64062 1.8945,0 3.4453,0.75 4.6562,2.25 1.207,1.5 1.8125,3.4336 1.8125,5.7969 0,2.3555 -0.60547,4.2812 -1.8125,5.7812 -1.2109,1.5 -2.7617,2.25 -4.6562,2.25 -1.0625,0 -2.0078,-0.21094 -2.8281,-0.625 C 8.6719,-0.6602 7.9258,-1.32032 7.25,-2.21882 V -2e-5 H 2.3594 v -21.281 H 7.25 Z"
         id="path1099" />
    </symbol>
    <symbol
       id="i"
       overflow="visible">
      <path
         d="m 0.34375,-15.312 h 4.8906 l 4.125,10.391 3.5,-10.391 h 4.8906 l -6.4375,16.766 c -0.64844,1.6953 -1.4023,2.8828 -2.2656,3.5625 -0.86719,0.6875 -2,1.0312 -3.4062,1.0312 H 2.79685 V 2.8289 h 1.5312 c 0.83203,0 1.4375,-0.13672 1.8125,-0.40625 C 6.52336,2.16093 6.82024,1.69218 7.03117,1.01645 L 7.17179,0.59457 Z"
         id="path1102" />
    </symbol>
    <symbol
       id="h"
       overflow="visible">
      <path
         d="m 0.82812,-20.406 h 5.0469 l 3.5312,14.828 3.5,-14.828 h 5.0781 l 3.5,14.828 3.5156,-14.828 h 5.0156 L 25.20302,0 h -6.0781 L 15.42182,-15.516 11.76562,0 h -6.0781 z"
         id="path1105" />
    </symbol>
    <symbol
       id="w"
       overflow="visible">
      <path
         d="M 2.3594,-15.312 H 7.25 V 0 H 2.3594 Z m 0,-5.9688 H 7.25 v 4 H 2.3594 Z"
         id="path1108" />
    </symbol>
    <symbol
       id="v"
       overflow="visible">
      <path
         d="M 2.3594,-21.281 H 7.25 V 0 H 2.3594 Z"
         id="path1111" />
    </symbol>
    <symbol
       id="g"
       overflow="visible">
      <path
         d="m 14.312,-14.828 v 3.7188 c -1.043,-0.4375 -2.0547,-0.76562 -3.0312,-0.98438 -0.98047,-0.21875 -1.9023,-0.32812 -2.7656,-0.32812 -0.92969,0 -1.6211,0.11719 -2.0781,0.34375 -0.44922,0.23047 -0.67188,0.58984 -0.67188,1.0781 0,0.38672 0.17188,0.68359 0.51562,0.89062 0.34375,0.21094 0.95703,0.36719 1.8438,0.46875 l 0.85938,0.125 c 2.5078,0.32422 4.1953,0.85156 5.0625,1.5781 0.86328,0.73047 1.2969,1.8711 1.2969,3.4219 0,1.6367 -0.60547,2.8672 -1.8125,3.6875 -1.1992,0.8125 -2.9922,1.2188 -5.375,1.2188 -1.0234,0 -2.0742,-0.078125 -3.1562,-0.23438 -1.0742,-0.15625 -2.1797,-0.39453 -3.3125,-0.71875 v -3.7188 c 0.96875,0.48047 1.9609,0.83984 2.9844,1.0781 1.0312,0.23047 2.0781,0.34375 3.1406,0.34375 0.95703,0 1.6758,-0.12891 2.1562,-0.39062 0.47656,-0.26953 0.71875,-0.66406 0.71875,-1.1875 0,-0.4375 -0.16797,-0.75781 -0.5,-0.96875 -0.33594,-0.21875 -0.99609,-0.38281 -1.9844,-0.5 L 7.34339,-6.01551 c -2.1797,-0.26953 -3.7031,-0.77344 -4.5781,-1.5156 -0.875,-0.73828 -1.3125,-1.8594 -1.3125,-3.3594 0,-1.625 0.55078,-2.8281 1.6562,-3.6094 1.1133,-0.78906 2.8203,-1.1875 5.125,-1.1875 0.89453,0 1.8359,0.07422 2.8281,0.21875 1,0.13672 2.082,0.35156 3.25,0.64062 z"
         id="path1114" />
    </symbol>
    <symbol
       id="b"
       overflow="visible">
      <path
         d="m 9.6406,-12.188 c -1.0859,0 -1.9141,0.39062 -2.4844,1.1719 -0.57422,0.78125 -0.85938,1.9062 -0.85938,3.375 0,1.4688 0.28516,2.5938 0.85938,3.375 0.57031,0.77344 1.3984,1.1562 2.4844,1.1562 1.0625,0 1.875,-0.38281 2.4375,-1.1562 0.57031,-0.78125 0.85938,-1.9062 0.85938,-3.375 0,-1.4688 -0.28906,-2.5938 -0.85938,-3.375 -0.5625,-0.78125 -1.375,-1.1719 -2.4375,-1.1719 z m 0,-3.5 c 2.6328,0 4.6914,0.71484 6.1719,2.1406 1.4766,1.418 2.2188,3.3867 2.2188,5.9062 0,2.5117 -0.74219,4.4805 -2.2188,5.9062 C 14.332,-0.317 12.2734,0.39 9.6406,0.39 6.9922,0.39 4.9258,-0.31703 3.4375,-1.735 1.9453,-3.1608 1.2031,-5.1295 1.2031,-7.6412 c 0,-2.5195 0.74219,-4.4883 2.2344,-5.9062 1.4883,-1.4258 3.5547,-2.1406 6.2031,-2.1406 z"
         id="path1117" />
    </symbol>
    <symbol
       id="f"
       overflow="visible">
      <path
         d="M 17.75,-9.3281 V 0 h -4.9219 v -7.1406 c 0,-1.3203 -0.03125,-2.2344 -0.09375,-2.7344 -0.0625,-0.5 -0.16797,-0.86719 -0.3125,-1.1094 -0.1875,-0.3125 -0.44922,-0.55469 -0.78125,-0.73438 -0.32422,-0.17578 -0.69531,-0.26562 -1.1094,-0.26562 -1.0234,0 -1.8242,0.39844 -2.4062,1.1875 -0.58594,0.78125 -0.875,1.8711 -0.875,3.2656 V -1e-4 H 2.3594 v -15.312 H 7.25 v 2.2344 c 0.73828,-0.88281 1.5195,-1.5391 2.3438,-1.9688 0.83203,-0.42578 1.75,-0.64062 2.75,-0.64062 1.7695,0 3.1133,0.54688 4.0312,1.6406 0.91406,1.0859 1.375,2.6562 1.375,4.7188 z"
         id="path1120" />
    </symbol>
    <symbol
       id="u"
       overflow="visible">
      <path
         d="m 2.5781,-20.406 h 5.25 V -1.984 C 7.8281,0.5551 7.13279,2.4574 5.75,3.7191 4.375,4.9769 2.2891,5.6097 -0.5,5.6097 H -1.5781 V 1.6253 h 0.82812 c 1.0938,0 1.9219,-0.30859 2.4844,-0.92188 0.5625,-0.60547 0.84375,-1.5 0.84375,-2.6875 z"
         id="path1123" />
    </symbol>
    <symbol
       id="t"
       overflow="visible">
      <path
         d="M 7.25,-2.2188 V 5.8281 H 2.3594 v -21.141 H 7.25 v 2.2344 c 0.67578,-0.88281 1.4219,-1.5391 2.2344,-1.9688 0.82031,-0.42578 1.7656,-0.64062 2.8281,-0.64062 1.8945,0 3.4453,0.75 4.6562,2.25 1.207,1.5 1.8125,3.4336 1.8125,5.7969 0,2.3555 -0.60547,4.2812 -1.8125,5.7812 -1.2109,1.5 -2.7617,2.25 -4.6562,2.25 -1.0625,0 -2.0078,-0.21094 -2.8281,-0.625 C 8.6719,-0.6606 7.9258,-1.32072 7.25,-2.21922 Z m 3.25,-9.9062 c -1.0547,0 -1.8594,0.38672 -2.4219,1.1562 -0.55469,0.77344 -0.82812,1.8828 -0.82812,3.3281 0,1.4492 0.27344,2.5586 0.82812,3.3281 0.5625,0.77344 1.3672,1.1562 2.4219,1.1562 1.0508,0 1.8516,-0.37891 2.4062,-1.1406 0.55078,-0.76953 0.82812,-1.8828 0.82812,-3.3438 0,-1.457 -0.27734,-2.5664 -0.82812,-3.3281 -0.55469,-0.76953 -1.3555,-1.1562 -2.4062,-1.1562 z"
         id="path1126" />
    </symbol>
    <symbol
       id="e"
       overflow="visible">
      <path
         d="M 17.75,-9.3281 V 0 h -4.9219 v -7.1094 c 0,-1.3438 -0.03125,-2.2656 -0.09375,-2.7656 -0.0625,-0.5 -0.16797,-0.86719 -0.3125,-1.1094 -0.1875,-0.3125 -0.44922,-0.55469 -0.78125,-0.73438 -0.32422,-0.17578 -0.69531,-0.26562 -1.1094,-0.26562 -1.0234,0 -1.8242,0.39844 -2.4062,1.1875 -0.58594,0.78125 -0.875,1.8711 -0.875,3.2656 V -1e-4 H 2.3594 v -21.281 H 7.25 v 8.2031 c 0.73828,-0.88281 1.5195,-1.5391 2.3438,-1.9688 0.83203,-0.42578 1.75,-0.64062 2.75,-0.64062 1.7695,0 3.1133,0.54688 4.0312,1.6406 0.91406,1.0859 1.375,2.6562 1.375,4.7188 z"
         id="path1129" />
    </symbol>
    <symbol
       id="s"
       overflow="visible">
      <path
         d="m 12.422,-21.281 v 3.2188 H 9.7189 c -0.6875,0 -1.1719,0.125 -1.4531,0.375 -0.27344,0.25 -0.40625,0.6875 -0.40625,1.3125 v 1.0625 h 4.1875 v 3.5 H 7.85955 V -2e-4 h -4.8906 v -11.812 h -2.4375 v -3.5 h 2.4375 v -1.0625 c 0,-1.6641 0.46094,-2.8984 1.3906,-3.7031 0.92578,-0.80078 2.3672,-1.2031 4.3281,-1.2031 z"
         id="path1132" />
    </symbol>
    <symbol
       id="r"
       overflow="visible">
      <path
         d="m 16.547,-12.766 c 0.61328,-0.94531 1.3477,-1.6719 2.2031,-2.1719 0.85156,-0.5 1.7891,-0.75 2.8125,-0.75 1.7578,0 3.0977,0.54688 4.0156,1.6406 0.92578,1.0859 1.3906,2.6562 1.3906,4.7188 V -4e-4 h -4.9219 v -7.9844 -0.35938 c 0.0078,-0.13281 0.01563,-0.32031 0.01563,-0.5625 0,-1.082 -0.16406,-1.8633 -0.48438,-2.3438 -0.3125,-0.48828 -0.82422,-0.73438 -1.5312,-0.73438 -0.92969,0 -1.6484,0.38672 -2.1562,1.1562 -0.51172,0.76172 -0.77344,1.8672 -0.78125,3.3125 v 7.5156 h -4.9219 v -7.9844 c 0,-1.6953 -0.14844,-2.7852 -0.4375,-3.2656 -0.29297,-0.48828 -0.8125,-0.73438 -1.5625,-0.73438 -0.9375,0 -1.6641,0.38672 -2.1719,1.1562 -0.51172,0.76172 -0.76562,1.8594 -0.76562,3.2969 v 7.5312 h -4.9219 v -15.312 h 4.9219 v 2.2344 c 0.60156,-0.86328 1.2891,-1.5156 2.0625,-1.9531 0.78125,-0.4375 1.6406,-0.65625 2.5781,-0.65625 1.0625,0 2,0.25781 2.8125,0.76562 0.8125,0.51172 1.4258,1.2305 1.8438,2.1562 z"
         id="path1135" />
    </symbol>
    <symbol
       id="q"
       overflow="visible">
      <path
         d="m 2.5781,-20.406 h 5.875 l 7.4219,14 v -14 h 4.9844 V 0 h -5.875 L 7.5625,-14 V 0 H 2.5781 Z"
         id="path1138" />
    </symbol>
    <symbol
       id="p"
       overflow="visible">
      <path
         d="m 2.1875,-5.9688 v -9.3438 h 4.9219 v 1.5312 c 0,0.83594 -0.00781,1.875 -0.015625,3.125 -0.011719,1.25 -0.015625,2.0859 -0.015625,2.5 0,1.2422 0.03125,2.1328 0.09375,2.6719 0.070313,0.54297 0.17969,0.93359 0.32812,1.1719 0.20703,0.32422 0.47266,0.57422 0.79688,0.75 0.32031,0.16797 0.69141,0.25 1.1094,0.25 1.0195,0 1.8203,-0.39062 2.4062,-1.1719 0.58203,-0.78125 0.875,-1.8672 0.875,-3.2656 v -7.5625 h 4.8906 V -6e-4 H 12.6875 V -2.2194 C 11.94531,-1.32096 11.1641,-0.6608 10.3437,-0.235 9.51948,0.17906 8.6093,0.39 7.6093,0.39 5.8476,0.39 4.5038,-0.14906 3.5781,-1.235 2.64841,-2.317 2.1875,-3.8952 2.1875,-5.9694 Z"
         id="path1141" />
    </symbol>
    <symbol
       id="o"
       overflow="visible">
      <path
         d="m 2.5781,-20.406 h 8.7344 c 2.5938,0 4.582,0.57812 5.9688,1.7344 1.3945,1.1484 2.0938,2.7891 2.0938,4.9219 0,2.1367 -0.69922,3.7812 -2.0938,4.9375 -1.3867,1.1562 -3.375,1.7344 -5.9688,1.7344 H 7.8281 V 3e-4 h -5.25 z m 5.25,3.8125 v 5.7031 H 10.75 c 1.0195,0 1.8047,-0.25 2.3594,-0.75 0.5625,-0.5 0.84375,-1.2031 0.84375,-2.1094 0,-0.91406 -0.28125,-1.6172 -0.84375,-2.1094 -0.55469,-0.48828 -1.3398,-0.73438 -2.3594,-0.73438 z"
         id="path1144" />
    </symbol>
    <symbol
       id="n"
       overflow="visible">
      <path
         d="M 2.3594,-15.312 H 7.25 v 15.031 c 0,2.0508 -0.49609,3.6172 -1.4844,4.7031 -0.98047,1.082 -2.4062,1.625 -4.2812,1.625 H -0.9375 V 2.8283 h 0.85938 c 0.92578,0 1.5625,-0.21094 1.9062,-0.625 0.35156,-0.41797 0.53125,-1.2461 0.53125,-2.4844 z m 0,-5.9688 H 7.25 v 4 H 2.3594 Z"
         id="path1147" />
    </symbol>
    <symbol
       id="m"
       overflow="visible">
      <path
         d="m 14.719,-14.828 v 3.9844 c -0.65625,-0.45703 -1.3242,-0.79688 -2,-1.0156 -0.66797,-0.21875 -1.3594,-0.32812 -2.0781,-0.32812 -1.3672,0 -2.4336,0.40234 -3.2031,1.2031 -0.76172,0.79297 -1.1406,1.9062 -1.1406,3.3438 0,1.4297 0.37891,2.543 1.1406,3.3438 0.76953,0.79297 1.8359,1.1875 3.2031,1.1875 0.75781,0 1.4844,-0.10938 2.1719,-0.32812 0.6875,-0.22656 1.3203,-0.56641 1.9062,-1.0156 v 4 c -0.76172,0.28125 -1.5391,0.48828 -2.3281,0.625 -0.78125,0.14453 -1.5742,0.21875 -2.375,0.21875 -2.7617,0 -4.9219,-0.70703 -6.4844,-2.125 -1.5547,-1.4141 -2.3281,-3.3828 -2.3281,-5.9062 0,-2.5312 0.77344,-4.5039 2.3281,-5.9219 1.5625,-1.4141 3.7227,-2.125 6.4844,-2.125 0.80078,0 1.5938,0.07422 2.375,0.21875 0.78125,0.13672 1.5547,0.35156 2.3281,0.64062 z"
         id="path1150" />
    </symbol>
    <marker
       style="overflow:visible"
       id="Arrow2Lend-5"
       refX="0"
       refY="0"
       orient="auto"
       inkscape:stockid="Arrow2Lend"
       inkscape:isstock="true">
      <path
         transform="matrix(-1.1,0,0,-1.1,-1.1,0)"
         d="M 8.7185878,4.0337352 -2.2072895,0.01601326 8.7185884,-4.0017078 c -1.7454984,2.3720609 -1.7354408,5.6174519 -6e-7,8.035443 z"
         style="fill:context-stroke;fill-rule:evenodd;stroke:context-stroke;stroke-width:0.625;stroke-linejoin:round"
         id="path9025-8" />
    </marker>
  </defs>
  <g
     inkscape:label="Layer 1"
     inkscape:groupmode="layer"
     id="layer1"
     transform="translate(-10.469557,-68.680386)">
    <rect
       style="fill:none;stroke:#b4b4b4;stroke-width:0.874357;stroke-linecap:round;stroke-linejoin:round;stroke-miterlimit:4;stroke-dasharray:none;stroke-opacity:1"
       id="rect846"
       width="96.738472"
       height="47.5467"
       x="59.241032"
       y="82.255905"
       ry="2.4663954" />
    <g
       id="g1456"
       style="fill:#b4b4b4;fill-opacity:1"
       transform="matrix(0.05322694,0,0,0.05322694,61.198492,87.792751)">
      <path
         d="m 140.05137,89.323341 c 23.80156,0 43.16236,-25.260653 43.16236,-49.060806 0,-23.798742 -19.36009,-43.1658892 -43.16236,-43.1658892 -23.80227,0 -43.165891,19.3667942 -43.165891,43.1658892 0.0041,23.797331 19.364321,49.060806 43.165891,49.060806 z"
         id="path1155"
         style="fill:#b4b4b4;fill-opacity:1;stroke-width:0.352778" />
      <path
         d="m 172.45401,89.764313 c -8.37283,6.378928 -18.81717,10.174111 -30.13075,10.174111 h -4.54484 c -11.3164,0 -21.76321,-3.796594 -30.13357,-10.174111 -27.336046,4.419247 -48.210613,28.114627 -48.210613,56.694917 0,15.70143 36.092695,28.43459 80.616783,28.43459 44.52408,0 80.61677,-12.73316 80.61677,-28.43459 0,-28.58206 -20.87739,-52.278139 -48.21414,-56.694917 z"
         id="path1157"
         style="fill:#b4b4b4;fill-opacity:1;stroke-width:0.352778" />
    </g>
    <circle
       style="fill:none;fill-opacity:1;stroke:#b4b4b4;stroke-width:0.670173;stroke-linecap:round;stroke-linejoin:round;stroke-miterlimit:4;stroke-dasharray:none;stroke-opacity:1"
       id="path1552"
       cx="68.595871"
       cy="92.696999"
       r="6.3373537" />
    <text
       xml:space="preserve"
       style="font-style:normal;font-variant:normal;font-weight:normal;font-stretch:normal;font-size:4.23333px;line-height:1.25;font-family:sans-serif;-inkscape-font-specification:sans-serif;letter-spacing:0px;word-spacing:0px;stroke-width:0.264583"
       x="75.766426"
       y="99.549866"
       id="text2853"><tspan
         sodipodi:role="line"
         id="tspan2851"
         style="font-style:normal;font-variant:normal;font-weight:normal;font-stretch:normal;font-family:sans-serif;-inkscape-font-specification:sans-serif;stroke-width:0.264583"
         x="75.766426"
         y="99.549866">Lorem ipsum dolor sit amet, </tspan><tspan
         sodipodi:role="line"
         style="font-style:normal;font-variant:normal;font-weight:normal;font-stretch:normal;font-family:sans-serif;-inkscape-font-specification:sans-serif;stroke-width:0.264583"
         x="75.766426"
         y="104.84153"
         id="tspan6343">consectetur adipiscing elit, sed do </tspan><tspan
         sodipodi:role="line"
         style="font-style:normal;font-variant:normal;font-weight:normal;font-stretch:normal;font-family:sans-serif;-inkscape-font-specification:sans-serif;stroke-width:0.264583"
         x="75.766426"
         y="110.13319"
         id="tspan6345">eiusmod tempor incididunt ut </tspan><tspan
         sodipodi:role="line"
         style="font-style:normal;font-variant:normal;font-weight:normal;font-stretch:normal;font-family:sans-serif;-inkscape-font-specification:sans-serif;stroke-width:0.264583"
         x="75.766426"
         y="115.42485"
         id="tspan6347">labore et dolore magna aliqua. </tspan></text>
    <path
       style="fill:none;stroke:#000000;stroke-width:0.5;stroke-linecap:butt;stroke-linejoin:miter;stroke-miterlimit:4;stroke-dasharray:none;stroke-opacity:1;marker-end:url(#Arrow2Lend);opacity:0.1"
       d="m 42.623856,85.775305 23.202477,6.564276"
       id="path9002"
       sodipodi:nodetypes="cc" />
    <path
       style="fill:none;stroke:#000000;stroke-width:0.5;stroke-linecap:butt;stroke-linejoin:miter;stroke-miterlimit:4;stroke-dasharray:none;stroke-opacity:1;marker-end:url(#Arrow2Lend-5);opacity:1"
       d="m 140.98645,75.452366 -6.7e-4,10.444557"
       id="path9002-2"
       sodipodi:nodetypes="cc" />
    <text
       xml:space="preserve"
       style="font-size:7.05556px;line-height:1.25;font-family:Impact;-inkscape-font-specification:Impact;letter-spacing:0px;word-spacing:0px;stroke-width:0.264583;opacity:0.1"
       x="10.448887"
       y="85.254021"
       id="text10051"><tspan
         sodipodi:role="line"
         id="tspan10049"
         style="font-size:7.05556px;fill:#0015bc;fill-opacity:1;stroke-width:0.264583"
         x="10.448887"
         y="85.254021">Democrat</tspan><tspan
         sodipodi:role="line"
         style="font-size:7.05556px;fill:#ff0000;fill-opacity:1;stroke-width:0.264583"
         x="10.448887"
         y="94.073471"
         id="tspan10053">Republican</tspan></text>
    <text
       xml:space="preserve"
       style="font-size:4.16278px;line-height:1.25;font-family:Impact;-inkscape-font-specification:Impact;letter-spacing:0px;word-spacing:0px;stroke-width:0.164829"
       x="126.61524"
       y="91.145737"
       id="text16419"><tspan
         sodipodi:role="line"
         id="tspan16417"
         style="font-style:normal;font-variant:normal;font-weight:normal;font-stretch:normal;font-size:4.16278px;font-family:sans-serif;-inkscape-font-specification:sans-serif;fill:#b4b4b4;fill-opacity:1;stroke-width:0.164829"
         x="126.61524"
         y="91.145737">July 20, 2022</tspan></text>
    <text
       xml:space="preserve"
       style="font-size:3.52778px;line-height:1.25;font-family:Impact;-inkscape-font-specification:Impact;letter-spacing:0px;word-spacing:0px;stroke-width:0.275564"
       x="83.664154"
       y="123.84095"
       id="text16419-8"><tspan
         sodipodi:role="line"
         id="tspan16417-2"
         style="font-style:normal;font-variant:normal;font-weight:normal;font-stretch:normal;font-size:3.52778px;font-family:sans-serif;-inkscape-font-specification:sans-serif;fill:#b4b4b4;fill-opacity:1;stroke-width:0.275564"
         x="83.664154"
         y="123.84095">3</tspan></text>
    <text
       xml:space="preserve"
       style="font-size:4.17769px;line-height:1.25;font-family:Impact;-inkscape-font-specification:Impact;letter-spacing:0px;word-spacing:0px;stroke-width:0.261106"
       x="77.174545"
       y="91.083458"
       id="text29037"><tspan
         sodipodi:role="line"
         id="tspan29035"
         style="font-style:normal;font-variant:normal;font-weight:normal;font-stretch:normal;font-family:sans-serif;-inkscape-font-specification:sans-serif;fill:#b4b4b4;fill-opacity:1;stroke-width:0.261106"
         x="77.174545"
         y="91.083458"><tspan
   style="font-style:normal;font-variant:normal;font-weight:bold;font-stretch:normal;font-family:sans-serif;-inkscape-font-specification:'sans-serif Bold';fill:#000000;fill-opacity:1;stroke-width:0.261106"
   id="tspan29313">Senator XY</tspan> @senXY</tspan></text>
    <g
       id="g34000"
       transform="matrix(0.00974659,0,0,0.00974659,136.00488,120.14435)"
       style="fill:#b4b4b4;fill-opacity:1;stroke:#b4b4b4;stroke-opacity:1">
      <g
         id="g33945"
         style="fill:#b4b4b4;fill-opacity:1;stroke:#b4b4b4;stroke-opacity:1">
	<g
   id="g33943"
   style="fill:#b4b4b4;fill-opacity:1;stroke:#b4b4b4;stroke-opacity:1">
		<path
   d="m 418.056,162.056 c -30.616,0 -57.736,14.712 -74.88,37.384 L 184.512,118.6 c 2.136,-7.872 3.376,-16.104 3.376,-24.656 C 187.888,42.064 145.824,0 93.944,0 42.064,0 0,42.064 0,93.944 c 0,51.88 42.064,93.944 93.944,93.944 31.912,0 60.056,-15.944 77.04,-40.264 l 157.44,80.216 c -2.792,8.888 -4.304,18.344 -4.304,28.16 0,9.816 1.512,19.272 4.304,28.16 l -157.44,80.224 C 154.008,340.064 125.856,324.112 93.944,324.112 42.064,324.112 0,366.176 0,418.056 0,469.936 42.064,512 93.944,512 c 51.88,0 93.944,-42.064 93.944,-93.944 0,-8.544 -1.24,-16.784 -3.376,-24.648 L 343.176,312.56 c 17.152,22.672 44.264,37.384 74.88,37.384 51.88,0 93.944,-42.064 93.944,-93.944 0,-51.888 -42.064,-93.944 -93.944,-93.944 z M 93.944,155.888 C 59.784,155.888 32,128.096 32,93.944 32,59.784 59.784,32 93.944,32 c 34.152,0 61.944,27.784 61.944,61.944 0,34.152 -27.792,61.944 -61.944,61.944 z m 0,324.112 C 59.784,480 32,452.216 32,418.056 c 0,-34.152 27.792,-61.944 61.944,-61.944 34.152,0 61.944,27.792 61.944,61.944 0,34.16 -27.792,61.944 -61.944,61.944 z M 418.056,317.944 c -34.152,0 -61.944,-27.792 -61.944,-61.944 0,-34.16 27.792,-61.944 61.944,-61.944 34.16,0 61.944,27.784 61.944,61.944 0,34.152 -27.784,61.944 -61.944,61.944 z"
   id="path33941"
   style="fill:#b4b4b4;fill-opacity:1;stroke:#b4b4b4;stroke-opacity:1" />

	</g>

</g>
      <g
         id="g33947"
         style="fill:#b4b4b4;fill-opacity:1;stroke:#b4b4b4;stroke-opacity:1">
</g>
      <g
         id="g33949"
         style="fill:#b4b4b4;fill-opacity:1;stroke:#b4b4b4;stroke-opacity:1">
</g>
      <g
         id="g33951"
         style="fill:#b4b4b4;fill-opacity:1;stroke:#b4b4b4;stroke-opacity:1">
</g>
      <g
         id="g33953"
         style="fill:#b4b4b4;fill-opacity:1;stroke:#b4b4b4;stroke-opacity:1">
</g>
      <g
         id="g33955"
         style="fill:#b4b4b4;fill-opacity:1;stroke:#b4b4b4;stroke-opacity:1">
</g>
      <g
         id="g33957"
         style="fill:#b4b4b4;fill-opacity:1;stroke:#b4b4b4;stroke-opacity:1">
</g>
      <g
         id="g33959"
         style="fill:#b4b4b4;fill-opacity:1;stroke:#b4b4b4;stroke-opacity:1">
</g>
      <g
         id="g33961"
         style="fill:#b4b4b4;fill-opacity:1;stroke:#b4b4b4;stroke-opacity:1">
</g>
      <g
         id="g33963"
         style="fill:#b4b4b4;fill-opacity:1;stroke:#b4b4b4;stroke-opacity:1">
</g>
      <g
         id="g33965"
         style="fill:#b4b4b4;fill-opacity:1;stroke:#b4b4b4;stroke-opacity:1">
</g>
      <g
         id="g33967"
         style="fill:#b4b4b4;fill-opacity:1;stroke:#b4b4b4;stroke-opacity:1">
</g>
      <g
         id="g33969"
         style="fill:#b4b4b4;fill-opacity:1;stroke:#b4b4b4;stroke-opacity:1">
</g>
      <g
         id="g33971"
         style="fill:#b4b4b4;fill-opacity:1;stroke:#b4b4b4;stroke-opacity:1">
</g>
      <g
         id="g33973"
         style="fill:#b4b4b4;fill-opacity:1;stroke:#b4b4b4;stroke-opacity:1">
</g>
      <g
         id="g33975"
         style="fill:#b4b4b4;fill-opacity:1;stroke:#b4b4b4;stroke-opacity:1">
</g>
    </g>
    <g
       id="g34058"
       transform="matrix(0.18898809,0,0,0.18898809,76,119.69667)">
      <g
         id="g34004">
	<path
   style="fill:#b4b4b4;fill-opacity:1;stroke-width:1.01262"
   d="M 27.527031,1.605 H 2.1832063 C 0.97920245,1.605 0,2.5842024 0,3.7871937 V 21.580932 c 0,1.202992 0.97920245,2.182194 2.1832063,2.182194 H 15.897104 l 5.120813,3.824662 c 0.419225,0.313911 0.852625,0.473905 1.284001,0.473905 0.798956,0 1.659682,-0.609596 1.657657,-1.947266 v -2.351301 h 3.567456 c 1.202992,0 2.181181,-0.979202 2.181181,-2.182194 V 3.7871937 C 29.708212,2.5842024 28.72901,1.605 27.527031,1.605 Z M 27.685,21.580932 c 0,0.08607 -0.06886,0.156956 -0.155943,0.156956 h -5.592694 v 4.004908 L 16.57252,21.736876 H 2.1832063 c -0.087085,0 -0.1559433,-0.07088 -0.1559433,-0.156956 V 3.786181 c 0,-0.086073 0.068858,-0.1569559 0.1559433,-0.1569559 v 0.00101 H 27.528044 c 0.08708,0 0.155943,0.070883 0.155943,0.156956 z"
   id="path34002"
   sodipodi:nodetypes="sssssccsccsssscscccsssccscc" />

</g>
      <g
         id="g34006">
</g>
      <g
         id="g34008">
</g>
      <g
         id="g34010">
</g>
      <g
         id="g34012">
</g>
      <g
         id="g34014">
</g>
      <g
         id="g34016">
</g>
      <g
         id="g34018">
</g>
      <g
         id="g34020">
</g>
      <g
         id="g34022">
</g>
      <g
         id="g34024">
</g>
      <g
         id="g34026">
</g>
      <g
         id="g34028">
</g>
      <g
         id="g34030">
</g>
      <g
         id="g34032">
</g>
      <g
         id="g34034">
</g>
    </g>
    <g
       id="g34113"
       transform="matrix(0.02541425,0,0,0.02541425,115.99999,119.73737)"
       style="fill:#b4b4b4;fill-opacity:1">
      <path
         d="M 194.078,22.682 C 183.331,14.489 171.472,10.334 158.83,10.334 c -15.951,0 -33.181,6.808 -50.126,19.754 C 91.759,17.142 74.529,10.334 58.578,10.334 45.936,10.334 34.077,14.489 23.33,22.682 7.606,34.671 -0.24,49.8 0.006,67.648 0.852,128.765 100.099,200.881 104.323,203.921 l 4.381,3.153 4.381,-3.153 c 4.225,-3.04 103.472,-75.156 104.317,-136.273 0.246,-17.848 -7.6,-32.977 -23.324,-44.966 z m -40.245,126.335 c -18.374,18.48 -36.915,33.188 -45.129,39.453 C 100.49,182.205 81.949,167.498 63.575,149.017 32.096,117.356 15.301,89.144 15.005,67.432 14.827,54.419 20.526,43.683 32.426,34.61 c 8.073,-6.156 16.872,-9.277 26.152,-9.277 17.563,0 34.338,10.936 45.317,20.11 l 4.809,4.018 4.809,-4.018 c 10.979,-9.174 27.754,-20.11 45.317,-20.11 9.28,0 18.079,3.121 26.152,9.277 11.9,9.073 17.599,19.809 17.421,32.822 -0.296,21.713 -17.092,49.924 -48.57,81.585 z"
         id="path34060"
         style="fill:#b4b4b4;fill-opacity:1" />
      <g
         id="g34062"
         style="fill:#b4b4b4;fill-opacity:1">
</g>
      <g
         id="g34064"
         style="fill:#b4b4b4;fill-opacity:1">
</g>
      <g
         id="g34066"
         style="fill:#b4b4b4;fill-opacity:1">
</g>
      <g
         id="g34068"
         style="fill:#b4b4b4;fill-opacity:1">
</g>
      <g
         id="g34070"
         style="fill:#b4b4b4;fill-opacity:1">
</g>
      <g
         id="g34072"
         style="fill:#b4b4b4;fill-opacity:1">
</g>
      <g
         id="g34074"
         style="fill:#b4b4b4;fill-opacity:1">
</g>
      <g
         id="g34076"
         style="fill:#b4b4b4;fill-opacity:1">
</g>
      <g
         id="g34078"
         style="fill:#b4b4b4;fill-opacity:1">
</g>
      <g
         id="g34080"
         style="fill:#b4b4b4;fill-opacity:1">
</g>
      <g
         id="g34082"
         style="fill:#b4b4b4;fill-opacity:1">
</g>
      <g
         id="g34084"
         style="fill:#b4b4b4;fill-opacity:1">
</g>
      <g
         id="g34086"
         style="fill:#b4b4b4;fill-opacity:1">
</g>
      <g
         id="g34088"
         style="fill:#b4b4b4;fill-opacity:1">
</g>
      <g
         id="g34090"
         style="fill:#b4b4b4;fill-opacity:1">
</g>
    </g>
    <g
       id="g35816"
       style="stroke-width:0.4;stroke-miterlimit:4;stroke-dasharray:none"
       transform="matrix(0.96869453,0,0,0.96869453,3.9386152,4.8716069)">
      <g
         id="g35694"
         style="fill:none;fill-opacity:1;stroke:#b4b4b4;stroke-width:0.444547;stroke-miterlimit:4;stroke-dasharray:none;stroke-opacity:1"
         transform="matrix(0.89979156,0,0,0.89979156,9.5315775,11.917771)">
        <path
           style="fill:none;fill-opacity:1;stroke:#b4b4b4;stroke-width:0.444547;stroke-linecap:round;stroke-linejoin:round;stroke-miterlimit:4;stroke-dasharray:none;stroke-opacity:1"
           d="m 97.895832,119.0625 h 2.645838 c 0,0 1.32291,0 1.32291,1.32292 v 3.96875 l -1.32291,-1.32292"
           id="path35246"
           sodipodi:nodetypes="ccscc" />
        <path
           style="fill:none;fill-opacity:1;stroke:#b4b4b4;stroke-width:0.444547;stroke-linecap:round;stroke-linejoin:miter;stroke-miterlimit:4;stroke-dasharray:none;stroke-opacity:1"
           d="m 103.1875,123.03125 -1.32292,1.32292"
           id="path35248" />
      </g>
      <g
         id="g35700"
         transform="matrix(-0.89979156,0,0,-0.89979156,188.08379,230.94185)"
         style="fill:none;fill-opacity:1;stroke:#b4b4b4;stroke-width:0.444547;stroke-miterlimit:4;stroke-dasharray:none;stroke-opacity:1">
        <path
           style="fill:none;fill-opacity:1;stroke:#b4b4b4;stroke-width:0.444547;stroke-linecap:round;stroke-linejoin:round;stroke-miterlimit:4;stroke-dasharray:none;stroke-opacity:1"
           d="m 97.895832,119.0625 h 2.645838 c 0,0 1.32291,0 1.32291,1.32292 v 3.96875 l -1.32291,-1.32292"
           id="path35696"
           sodipodi:nodetypes="ccscc" />
        <path
           style="fill:none;fill-opacity:1;stroke:#b4b4b4;stroke-width:0.444547;stroke-linecap:round;stroke-linejoin:miter;stroke-miterlimit:4;stroke-dasharray:none;stroke-opacity:1"
           d="m 103.1875,123.03125 -1.32292,1.32292"
           id="path35698" />
      </g>
    </g>
    <text
       xml:space="preserve"
       style="font-size:3.52778px;line-height:1.25;font-family:Impact;-inkscape-font-specification:Impact;letter-spacing:0px;word-spacing:0px;stroke-width:0.275564"
       x="104.30111"
       y="123.84095"
       id="text40737"><tspan
         sodipodi:role="line"
         id="tspan40735"
         style="font-style:normal;font-variant:normal;font-weight:normal;font-stretch:normal;font-size:3.52778px;font-family:sans-serif;-inkscape-font-specification:sans-serif;fill:#b4b4b4;fill-opacity:1;stroke-width:0.275564"
         x="104.30111"
         y="123.84095">28</tspan></text>
    <text
       xml:space="preserve"
       style="font-size:3.52778px;line-height:1.25;font-family:Impact;-inkscape-font-specification:Impact;letter-spacing:0px;word-spacing:0px;stroke-width:0.275564"
       x="122.95786"
       y="123.84095"
       id="text40741"><tspan
         sodipodi:role="line"
         id="tspan40739"
         style="font-style:normal;font-variant:normal;font-weight:normal;font-stretch:normal;font-size:3.52778px;font-family:sans-serif;-inkscape-font-specification:sans-serif;fill:#b4b4b4;fill-opacity:1;stroke-width:0.275564"
         x="122.95786"
         y="123.84095">112</tspan></text>
    <path
       style="fill:none;stroke:#000000;stroke-width:0.5;stroke-linecap:butt;stroke-linejoin:miter;stroke-miterlimit:4;stroke-dasharray:none;stroke-opacity:1;marker-end:url(#Arrow2Lend);opacity:0.1"
       d="M 29.365959,106.62713 H 74.175662"
       id="path53436"
       sodipodi:nodetypes="cc" />
    <text
       xml:space="preserve"
       style="font-size:7.05556px;line-height:1.25;font-family:Impact;-inkscape-font-specification:Impact;letter-spacing:0px;word-spacing:0px;stroke-width:0.264583;opacity:0.1"
       x="10.717829"
       y="108.53735"
       id="text53442"><tspan
         sodipodi:role="line"
         style="font-size:7.05556px;fill:#b4b4b4;fill-opacity:1;stroke-width:0.264583"
         x="10.717829"
         y="108.53735"
         id="tspan53440">topic</tspan></text>
    <text
       xml:space="preserve"
       style="font-size:7.05556px;line-height:1.25;font-family:Impact;-inkscape-font-specification:Impact;letter-spacing:0px;word-spacing:0px;stroke-width:0.264583;opacity:1"
       x="126.13216"
       y="74.261444"
       id="text53442-4"><tspan
         sodipodi:role="line"
         style="font-size:7.05556px;fill:#000000;fill-opacity:1;stroke-width:0.264583"
         x="126.13216"
         y="74.261444"
         id="tspan53440-8">date-time</tspan></text>
    <path
       style="fill:none;stroke:#000000;stroke-width:0.5;stroke-linecap:butt;stroke-linejoin:miter;stroke-miterlimit:4;stroke-dasharray:none;stroke-opacity:1;marker-end:url(#Arrow2Lend);opacity:0.1"
       d="m 53.181333,123.37178 21.111672,-7.9375"
       id="path53642"
       sodipodi:nodetypes="cc" />
    <text
       xml:space="preserve"
       style="font-size:7.05556px;line-height:1.25;font-family:Impact;-inkscape-font-specification:Impact;letter-spacing:0px;word-spacing:0px;stroke-width:0.264583;opacity:0.1"
       x="10.448887"
       y="122.58047"
       id="text56110"><tspan
         sodipodi:role="line"
         id="tspan56106"
         style="font-size:7.05556px;fill:#fac213;fill-opacity:1;stroke-width:0.264583"
         x="10.448887"
         y="122.58047">truth-seeking</tspan><tspan
         sodipodi:role="line"
         style="font-size:7.05556px;fill:#f77e21;fill-opacity:1;stroke-width:0.264583"
         x="10.448887"
         y="131.39992"
         id="tspan56108">belief-speaking</tspan></text>
    <text
       xml:space="preserve"
       style="font-style:normal;font-variant:normal;font-weight:normal;font-stretch:normal;font-size:5.64444px;line-height:1.75;font-family:sans-serif;-inkscape-font-specification:sans-serif;letter-spacing:0px;word-spacing:0px;stroke-width:0.264583"
       x="160.5255"
       y="93.729027"
       id="text66697"><tspan
         sodipodi:role="line"
         style="font-style:normal;font-variant:normal;font-weight:normal;font-stretch:normal;font-size:5.64444px;font-family:sans-serif;-inkscape-font-specification:sans-serif;stroke-width:0.264583"
         x="160.5255"
         y="93.729027"
         id="tspan66695">1035 accounts</tspan><tspan
         sodipodi:role="line"
         style="font-style:normal;font-variant:normal;font-weight:normal;font-stretch:normal;font-size:5.64444px;font-family:sans-serif;-inkscape-font-specification:sans-serif;stroke-width:0.264583"
         x="160.5255"
         y="103.6068"
         id="tspan67892">2011-2022</tspan><tspan
         sodipodi:role="line"
         style="font-style:normal;font-variant:normal;font-weight:normal;font-stretch:normal;font-size:5.64444px;font-family:sans-serif;-inkscape-font-specification:sans-serif;stroke-width:0.264583"
         x="160.5255"
         y="113.48457"
         id="tspan67888">1.8 mio tweets</tspan><tspan
         sodipodi:role="line"
         style="font-style:normal;font-variant:normal;font-weight:normal;font-stretch:normal;font-size:5.64444px;font-family:sans-serif;-inkscape-font-specification:sans-serif;stroke-width:0.264583"
         x="160.5255"
         y="123.36234"
         id="tspan67890"> </tspan></text>
  </g>
</svg>
