<?xml version="1.0" encoding="UTF-8" standalone="no"?>
<!-- Created with Inkscape (http://www.inkscape.org/) -->

<svg
   width="178.24327mm"
   height="73.279739mm"
   viewBox="0 0 178.24327 73.279739"
   version="1.1"
   id="svg5"
   inkscape:version="1.1.1 (3bf5ae0d25, 2021-09-20)"
   sodipodi:docname="API_1.svg"
   xmlns:inkscape="http://www.inkscape.org/namespaces/inkscape"
   xmlns:sodipodi="http://sodipodi.sourceforge.net/DTD/sodipodi-0.dtd"
   xmlns="http://www.w3.org/2000/svg"
   xmlns:svg="http://www.w3.org/2000/svg">
  <sodipodi:namedview
     id="namedview7"
     pagecolor="#ffffff"
     bordercolor="#666666"
     borderopacity="1.0"
     inkscape:pageshadow="2"
     inkscape:pageopacity="0.0"
     inkscape:pagecheckerboard="0"
     inkscape:document-units="mm"
     showgrid="false"
     fit-margin-top="0"
     fit-margin-left="0"
     fit-margin-right="0"
     fit-margin-bottom="0"
     inkscape:zoom="1.5518659"
     inkscape:cx="388.56451"
     inkscape:cy="251.63257"
     inkscape:window-width="2560"
     inkscape:window-height="1440"
     inkscape:window-x="2560"
     inkscape:window-y="0"
     inkscape:window-maximized="1"
     inkscape:current-layer="layer1">
    <inkscape:grid
       type="xygrid"
       id="grid9928"
       originx="-18.824373"
       originy="-34.185657" />
  </sodipodi:namedview>
  <defs
     id="defs2">
    <marker
       style="overflow:visible"
       id="Arrow2Mend"
       refX="0"
       refY="0"
       orient="auto"
       inkscape:stockid="Arrow2Mend"
       inkscape:isstock="true">
      <path
         transform="scale(-0.6)"
         d="M 8.7185878,4.0337352 -2.2072895,0.01601326 8.7185884,-4.0017078 c -1.7454984,2.3720609 -1.7354408,5.6174519 -6e-7,8.035443 z"
         style="fill:context-stroke;fill-rule:evenodd;stroke:context-stroke;stroke-width:0.625;stroke-linejoin:round"
         id="path10039" />
    </marker>
    <symbol
       id="r"
       overflow="visible">
      <path
         d="m 27.578,-1.6562 c -1.418,0.74219 -2.8984,1.2969 -4.4375,1.6719 -1.543,0.375 -3.1523,0.5625 -4.8281,0.5625 -5,0 -8.9648,-1.3945 -11.891,-4.1875 -2.918,-2.7891 -4.375,-6.582 -4.375,-11.375 0,-4.7891 1.457,-8.582 4.375,-11.375 2.9258,-2.8008 6.8906,-4.2031 11.891,-4.2031 1.6758,0 3.2852,0.1875 4.8281,0.5625 1.5391,0.375 3.0195,0.93359 4.4375,1.6719 v 6.2188 c -1.4297,-0.97656 -2.8398,-1.6953 -4.2344,-2.1562 -1.3984,-0.45703 -2.8672,-0.6875 -4.4062,-0.6875 -2.7617,0 -4.9336,0.88672 -6.5156,2.6562 -1.5859,1.7734 -2.375,4.2109 -2.375,7.3125 0,3.1055 0.78906,5.543 2.375,7.3125 1.582,1.7617 3.7539,2.6406 6.5156,2.6406 1.5391,0 3.0078,-0.22266 4.4062,-0.67188 1.3945,-0.45703 2.8047,-1.1758 4.2344,-2.1562 z"
         id="path824" />
    </symbol>
    <symbol
       id="e"
       overflow="visible">
      <path
         d="m 20.188,-16.391 c -0.63672,-0.28906 -1.2656,-0.50391 -1.8906,-0.64062 -0.61719,-0.14453 -1.2422,-0.21875 -1.875,-0.21875 -1.8438,0 -3.2656,0.59375 -4.2656,1.7812 -1,1.18745 -1.5,2.8867 -1.5,5.0938 v 10.375 H 3.4537 v -22.516 h 7.2031 v 3.7031 c 0.92578,-1.4766 1.9883,-2.5547 3.1875,-3.2344 1.1953,-0.67578 2.6328,-1.0156 4.3125,-1.0156 0.23828,0 0.5,0.01172 0.78125,0.03125 0.28125,0.02344 0.6875,0.07031 1.2188,0.14062 z"
         id="path827" />
    </symbol>
    <symbol
       id="b"
       overflow="visible">
      <path
         d="m 25.938,-11.312 v 2.0469 H 9.11 c 0.17578,1.6875 0.78516,2.9531 1.8281,3.7969 1.0391,0.84375 2.5,1.2656 4.375,1.2656 1.5195,0 3.0703,-0.22266 4.6562,-0.67188 1.5938,-0.44531 3.2266,-1.1289 4.9062,-2.0469 v 5.5625 c -1.7109,0.63672 -3.418,1.1172 -5.125,1.4375 -1.6992,0.33203 -3.3984,0.5 -5.0938,0.5 -4.0742,0 -7.2422,-1.0312 -9.5,-3.0938 -2.2617,-2.0703 -3.3906,-4.9766 -3.3906,-8.7188 0,-3.6758 1.1094,-6.5664 3.3281,-8.6719 2.2188,-2.1016 5.2695,-3.1562 9.1562,-3.1562 3.5391,0 6.375,1.0703 8.5,3.2031 2.125,2.125 3.1875,4.9766 3.1875,8.5469 z m -7.4062,-2.3906 c 0,-1.375 -0.40234,-2.4766 -1.2031,-3.3125 -0.79297,-0.84375 -1.8281,-1.2656 -3.1094,-1.2656 -1.3984,0 -2.5312,0.39844 -3.4062,1.1875 -0.86719,0.78125 -1.4062,1.9141 -1.625,3.3906 z"
         id="path830" />
    </symbol>
    <symbol
       id="d"
       overflow="visible">
      <path
         d="m 13.547,-10.125 c -1.5,0 -2.6328,0.25781 -3.3906,0.76562 -0.75,0.5 -1.125,1.25 -1.125,2.25 0,0.90625 0.30078,1.6211 0.90625,2.1406 0.61328,0.51172 1.4609,0.76562 2.5469,0.76562 1.3516,0 2.4883,-0.48438 3.4062,-1.4531 0.92578,-0.96875 1.3906,-2.1875 1.3906,-3.6562 v -0.8125 z m 11,-2.7188 V 2e-4 h -7.2656 v -3.3438 c -0.96094,1.375 -2.043,2.375 -3.25,3 -1.2109,0.61328 -2.6797,0.92188 -4.4062,0.92188 -2.3359,0 -4.2305,-0.67578 -5.6875,-2.0312 -1.4492,-1.3633 -2.1719,-3.1289 -2.1719,-5.2969 0,-2.6445 0.90625,-4.582 2.7188,-5.8125 1.8203,-1.2383 4.6758,-1.8594 8.5625,-1.8594 h 4.2344 v -0.5625 c 0,-1.1328 -0.44922,-1.9688 -1.3438,-2.5 -0.89844,-0.53125 -2.2969,-0.79688 -4.2031,-0.79688 -1.543,0 -2.9766,0.15625 -4.2969,0.46875 -1.3242,0.3125 -2.5586,0.77734 -3.7031,1.3906 v -5.4844 c 1.5391,-0.375 3.0859,-0.66016 4.6406,-0.85938 1.5625,-0.19531 3.1172,-0.29688 4.6719,-0.29688 4.0625,0 6.9922,0.80469 8.7969,2.4062 1.8008,1.6055 2.7031,4.2109 2.7031,7.8125 z"
         id="path833" />
    </symbol>
    <symbol
       id="a"
       overflow="visible">
      <path
         d="m 11.312,-28.906 v 6.3906 h 7.4219 v 5.1406 H 11.312 v 9.5625 c 0,1.043 0.20703,1.75 0.625,2.125 0.41406,0.36719 1.2422,0.54688 2.4844,0.54688 h 3.6875 V 1.8e-4 H 11.937 c -2.8438,0 -4.8594,-0.59375 -6.0469,-1.7812 -1.1797,-1.1875 -1.7656,-3.1953 -1.7656,-6.0312 v -9.5625 H 0.5464 v -5.1406 h 3.5781 v -6.3906 z"
         id="path836" />
    </symbol>
    <symbol
       id="h"
       overflow="visible">
      <path
         d="m 18.781,-19.219 v -12.062 h 7.2344 V 0 H 18.781 v -3.25 c -1,1.3242 -2.1016,2.293 -3.2969,2.9062 -1.1875,0.61328 -2.5625,0.92188 -4.125,0.92188 -2.7734,0 -5.0547,-1.0977 -6.8438,-3.2969 -1.7812,-2.207 -2.6719,-5.0469 -2.6719,-8.5156 0,-3.4687 0.89062,-6.3047 2.6719,-8.5156 1.7891,-2.207 4.0703,-3.3125 6.8438,-3.3125 1.5508,0 2.9258,0.3125 4.125,0.9375 1.1953,0.625 2.2969,1.5938 3.2969,2.9062 z m -4.75,14.578 c 1.5391,0 2.7188,-0.5625 3.5312,-1.6875 0.8124,-1.125 1.2188,-2.7578 1.2188,-4.9062 0,-2.1445 -0.40625,-3.7812 -1.2188,-4.9062 -0.81255,-1.125 -1.9922,-1.6875 -3.5312,-1.6875 -1.5312,0 -2.7031,0.5625 -3.5156,1.6875 -0.80469,1.125 -1.2031,2.7617 -1.2031,4.9062 0,2.1484 0.39844,3.7812 1.2031,4.9062 0.8125,1.125 1.9844,1.6875 3.5156,1.6875 z"
         id="path839" />
    </symbol>
    <symbol
       id="c"
       overflow="visible">
      <path
         d="m 15.438,-4.6406 c 1.5391,0 2.7188,-0.5625 3.5312,-1.6875 0.8124,-1.125 1.2188,-2.7578 1.2188,-4.9062 0,-2.1445 -0.40625,-3.7812 -1.2188,-4.9062 -0.81255,-1.125 -1.9922,-1.6875 -3.5312,-1.6875 -1.543,0 -2.7266,0.57031 -3.5469,1.7031 -0.82422,1.125 -1.2344,2.7578 -1.2344,4.8906 0,2.125 0.41016,3.7578 1.2344,4.8906 0.82031,1.1367 2.0039,1.7031 3.5469,1.7031 z m -4.7812,-14.578 c 0.98828,-1.3125 2.0859,-2.2812 3.2969,-2.9062 1.207,-0.625 2.5938,-0.9375 4.1562,-0.9375 2.7812,0 5.0625,1.1055 6.8438,3.3125 1.7812,2.2109 2.6719,5.0469 2.6719,8.5156 0,3.4687 -0.89062,6.3086 -2.6719,8.5156 -1.7812,2.1992 -4.0625,3.2969 -6.8438,3.2969 -1.5625,0 -2.9492,-0.30859 -4.1562,-0.92188 -1.2109,-0.625 -2.3086,-1.5938 -3.2969,-2.9062 v 3.25 H 3.4537 v -31.281 h 7.2031 z"
         id="path842" />
    </symbol>
    <symbol
       id="g"
       overflow="visible">
      <path
         d="m 0.5,-22.516 h 7.2031 l 6.0469,15.281 5.1406,-15.281 h 7.2031 L 16.6249,2.125 c -0.94922,2.5078 -2.0586,4.2656 -3.3281,5.2656 -1.2617,1 -2.9336,1.5 -5.0156,1.5 H 4.125 V 4.1562 h 2.25 c 1.2188,0 2.1016,-0.19531 2.6562,-0.57812 0.5625,-0.38672 0.99219,-1.0859 1.2969,-2.0938 l 0.20312,-0.625 z"
         id="path845" />
    </symbol>
    <symbol
       id="f"
       overflow="visible">
      <path
         d="m 0.20312,-30.016 h 7.7812 l 7.9531,22.156 7.9531,-22.156 h 7.7656 L 20.54712,0 h -9.2344 z"
         id="path848" />
    </symbol>
    <symbol
       id="q"
       overflow="visible">
      <path
         d="m 21.656,-21.812 v 5.875 c -0.98047,-0.67578 -1.9648,-1.1719 -2.9531,-1.4844 -0.98047,-0.32031 -2,-0.48438 -3.0625,-0.48438 -2.0117,0 -3.5781,0.58984 -4.7031,1.7656 -1.1172,1.168 -1.6719,2.8047 -1.6719,4.9062 0,2.1055 0.55469,3.7461 1.6719,4.9219 1.125,1.168 2.6914,1.75 4.7031,1.75 1.125,0 2.1914,-0.16406 3.2031,-0.5 1.0078,-0.33203 1.9453,-0.82812 2.8125,-1.4844 v 5.8906 c -1.125,0.40625 -2.2734,0.71094 -3.4375,0.92188 -1.1562,0.20703 -2.3203,0.3125 -3.4844,0.3125 -4.0625,0 -7.2422,-1.0391 -9.5312,-3.125 -2.293,-2.082 -3.4375,-4.9766 -3.4375,-8.6875 0,-3.7188 1.1445,-6.6172 3.4375,-8.7031 2.2891,-2.082 5.4688,-3.125 9.5312,-3.125 1.1758,0 2.3359,0.10547 3.4844,0.3125 1.1445,0.21094 2.2891,0.52344 3.4375,0.9375 z"
         id="path851" />
    </symbol>
    <symbol
       id="p"
       overflow="visible">
      <path
         d="m 14.172,-17.906 c -1.5938,0 -2.8125,0.57422 -3.6562,1.7188 -0.83594,1.1484 -1.25,2.7969 -1.25,4.9531 0,2.1562 0.41406,3.8086 1.25,4.9531 0.84375,1.1484 2.0625,1.7188 3.6562,1.7188 1.5703,0 2.7695,-0.57031 3.5938,-1.7188 0.83203,-1.1445 1.25,-2.7969 1.25,-4.9531 0,-2.1562 -0.41797,-3.8047 -1.25,-4.9531 -0.82422,-1.1445 -2.0234,-1.7188 -3.5938,-1.7188 z m 0,-5.1562 c 3.875,0 6.8984,1.0469 9.0781,3.1406 2.1758,2.0938 3.2656,4.9922 3.2656,8.6875 0,3.6992 -1.0898,6.5938 -3.2656,8.6875 -2.1797,2.0859 -5.2031,3.125 -9.0781,3.125 -3.8867,0 -6.9297,-1.0391 -9.125,-3.125 -2.1875,-2.0938 -3.2812,-4.9883 -3.2812,-8.6875 0,-3.6953 1.0938,-6.5938 3.2812,-8.6875 2.1953,-2.0938 5.2383,-3.1406 9.125,-3.1406 z"
         id="path854" />
    </symbol>
    <symbol
       id="o"
       overflow="visible">
      <path
         d="m 21.047,-21.812 v 5.4688 c -1.543,-0.64453 -3.0312,-1.1289 -4.4688,-1.4531 -1.4297,-0.32031 -2.7773,-0.48438 -4.0469,-0.48438 -1.375,0 -2.3984,0.17188 -3.0625,0.51562 -0.65625,0.34375 -0.98438,0.87109 -0.98438,1.5781 0,0.58594 0.25,1.0312 0.75,1.3438 0.5,0.30469 1.3984,0.52734 2.7031,0.67188 l 1.2656,0.1875 c 3.6875,0.46875 6.1641,1.2422 7.4375,2.3125 1.2812,1.0625 1.9219,2.7422 1.9219,5.0312 0,2.4062 -0.88672,4.2148 -2.6562,5.4219 -1.7734,1.1992 -4.4141,1.7969 -7.9219,1.7969 -1.4922,0 -3.0312,-0.12109 -4.625,-0.35938 -1.5859,-0.22656 -3.2148,-0.57812 -4.8906,-1.0469 v -5.4688 c 1.4375,0.69922 2.9062,1.2266 4.4062,1.5781 1.5078,0.34375 3.0469,0.51562 4.6094,0.51562 1.4062,0 2.4609,-0.19141 3.1719,-0.57812 0.70703,-0.39453 1.0625,-0.97266 1.0625,-1.7344 0,-0.64453 -0.24609,-1.125 -0.73438,-1.4375 -0.49219,-0.3125 -1.4648,-0.55469 -2.9219,-0.73438 l -1.2656,-0.15625 c -3.2109,-0.40625 -5.4609,-1.1484 -6.75,-2.2344 -1.2812,-1.082 -1.9219,-2.7266 -1.9219,-4.9375 0,-2.3828 0.81641,-4.1562 2.4531,-5.3125 1.6328,-1.1562 4.1445,-1.7344 7.5312,-1.7344 1.3203,0 2.7109,0.10547 4.1719,0.3125 1.457,0.19922 3.0469,0.51172 4.7656,0.9375 z"
         id="path857" />
    </symbol>
    <symbol
       id="n"
       overflow="visible">
      <path
         d="m 3.7812,-30.016 h 7.7344 v 24.172 h 13.594 V -2e-4 H 3.7816 Z"
         id="path860" />
    </symbol>
    <symbol
       id="m"
       overflow="visible">
      <path
         d="m 18.281,-31.281 v 4.7188 h -3.9844 c -1.0234,0 -1.7344,0.1875 -2.1406,0.5625 -0.39844,0.36719 -0.59375,1.0078 -0.59375,1.9219 v 1.5625 h 6.1562 v 5.1406 h -6.1562 V 3e-4 h -7.2031 v -17.375 h -3.5781 v -5.1406 h 3.5781 v -1.5625 c 0,-2.457 0.67969,-4.2695 2.0469,-5.4375 1.375,-1.1758 3.4922,-1.7656 6.3594,-1.7656 z"
         id="path863" />
    </symbol>
    <symbol
       id="l"
       overflow="visible">
      <path
         d="M 26.094,-13.703 V 0 h -7.2344 v -10.453 c 0,-1.9688 -0.04687,-3.3203 -0.14062,-4.0625 -0.08594,-0.73828 -0.23047,-1.2812 -0.4375,-1.625 -0.28125,-0.46875 -0.66797,-0.83203 -1.1562,-1.0938 -0.48047,-0.25781 -1.0273,-0.39062 -1.6406,-0.39062 -1.5,0 -2.6836,0.57812 -3.5469,1.7344 -0.85547,1.1562 -1.2812,2.7617 -1.2812,4.8125 V -2e-5 h -7.2031 v -31.281 h 7.2031 v 12.062 c 1.082,-1.3125 2.2344,-2.2812 3.4531,-2.9062 1.2187,-0.625 2.5664,-0.9375 4.0469,-0.9375 2.5938,0 4.5625,0.79688 5.9062,2.3906 1.3516,1.5938 2.0312,3.918 2.0312,6.9688 z"
         id="path866" />
    </symbol>
    <symbol
       id="k"
       overflow="visible">
      <path
         d="m 3.7812,-30.016 h 8.6406 l 10.922,20.594 v -20.594 h 7.3281 V 0 H 22.0313 L 11.1253,-20.594 V 0 H 3.7815 Z"
         id="path869" />
    </symbol>
    <symbol
       id="j"
       overflow="visible">
      <path
         d="m 3.7812,-30.016 h 12.844 c 3.8203,0 6.7539,0.85156 8.7969,2.5469 2.0391,1.6992 3.0625,4.1172 3.0625,7.25 0,3.1484 -1.0234,5.5703 -3.0625,7.2656 -2.043,1.6992 -4.9766,2.5469 -8.7969,2.5469 H 11.5158 V -6e-4 H 3.7814 Z m 7.7344,5.6094 v 8.3906 h 4.2812 c 1.5,0 2.6562,-0.36328 3.4688,-1.0938 0.82031,-0.73828 1.2344,-1.7734 1.2344,-3.1094 0,-1.3438 -0.41406,-2.375 -1.2344,-3.0938 -0.8125,-0.72656 -1.9688,-1.0938 -3.4688,-1.0938 z"
         id="path872" />
    </symbol>
    <symbol
       id="i"
       overflow="visible">
      <path
         d="m 3.4531,-22.516 h 7.2031 v 22.109 c 0,3.0195 -0.72656,5.3203 -2.1719,6.9062 C 7.0351,8.093 4.9374,8.8898 2.1874,8.8898 H -1.3595 V 4.1554 h 1.2344 c 1.375,0 2.3125,-0.30859 2.8125,-0.92188 0.50781,-0.61719 0.76562,-1.8281 0.76562,-3.6406 z m 0,-8.7656 h 7.2031 v 5.875 H 3.4531 Z"
         id="path875" />
    </symbol>
    <clipPath
       id="clipPath20"
       clipPathUnits="userSpaceOnUse">
      <path
         id="path18"
         d="M 0,1178.69 V 0 h 6000.85 v 1178.69 z" />
    </clipPath>
  </defs>
  <g
     inkscape:label="Layer 1"
     inkscape:groupmode="layer"
     id="layer1"
     transform="translate(-18.824373,-34.18566)">
    <rect
       style="opacity:0.394762;fill:#1a88a1;stroke-width:1;stroke-linecap:round;stroke-linejoin:round"
       id="rect7218"
       width="29.401794"
       height="68.35302"
       x="92.619736"
       y="39.112377" />
    <g
       id="g1122"
       transform="matrix(0.19336608,0,0,0.19336608,44.252657,54.023832)">
      <path
         d="m 26.74131,134.31924 -12.82947,-2.42535 c -0.668337,-0.1254 -1.219553,-0.58981 -1.434535,-1.2168 -0.566385,-1.62059 -1.229219,-3.2191 -1.973369,-4.74733 -0.281121,-0.58152 -0.223241,-1.28432 0.151585,-1.83279 l 7.373762,-10.80805 c 1.092799,-1.60405 0.888823,-3.76202 -0.482318,-5.13045 L 7.710462,98.317736 C 6.3393206,96.946595 4.179862,96.745406 2.5771925,97.83817 l -10.8080528,7.37129 c -0.5498395,0.37483 -1.2526434,0.43272 -1.8327867,0.15159 -1.539275,-0.7469 -3.137782,-1.41249 -4.750153,-1.96921 -0.62424,-0.21773 -1.090012,-0.76757 -1.216801,-1.43453 l -2.422595,-12.832296 c -0.363785,-1.90306 -2.031224,-3.285243 -3.96875,-3.285243 l -13.918142,-0.0028 c -1.940278,0 -3.607858,1.383559 -3.96875,3.285243 l -2.425347,12.832286 c -0.125402,0.66834 -0.592561,1.2168 -1.216801,1.43454 -1.609549,0.55809 -3.20668,1.22371 -4.744509,1.9692 -0.587057,0.2825 -1.289826,0.22049 -1.835538,-0.14883 l -10.808053,-7.376576 c -1.604045,-1.0928 -3.7592,-0.888824 -5.133269,0.482317 l -9.836503,9.840739 c -1.371141,1.37114 -1.575082,3.52918 -0.479566,5.13044 l 7.371292,10.80806 c 0.374826,0.54846 0.432717,1.25264 0.151585,1.83278 -0.746901,1.53928 -1.409736,3.13503 -1.969206,4.74733 -0.217731,0.62699 -0.767574,1.0928 -1.434535,1.2168 l -12.82947,2.42535 c -1.908598,0.35966 -3.292122,2.02847 -3.292122,3.96875 v 13.91532 c 0,1.94028 1.382183,3.61174 3.287995,3.97157 l 12.832291,2.42535 c 0.668338,0.1254 1.216801,0.59256 1.434536,1.21405 0.558094,1.6123 1.219553,3.20668 1.969205,4.74733 0.281122,0.58427 0.223242,1.28707 -0.151585,1.83554 l -7.371291,10.80805 c -1.095552,1.60129 -0.891576,3.7592 0.479566,5.13045 l 9.836503,9.84073 c 1.371141,1.36839 3.5306,1.57787 5.133269,0.47957 l 10.808053,-7.37129 c 0.552591,-0.37758 1.252643,-0.42997 1.835538,-0.15159 1.530985,0.74415 3.129527,1.40561 4.744508,1.96921 0.624241,0.21773 1.0928,0.76757 1.216801,1.43591 l 2.425348,12.82947 c 0.359657,1.90581 2.028472,3.28937 3.96875,3.28937 h 13.915319 c 1.937526,0 3.605036,-1.38356 3.96875,-3.28937 l 2.422596,-12.82947 c 0.128157,-0.66834 0.592561,-1.2168 1.216801,-1.43591 1.6123,-0.56085 3.210842,-1.22372 4.750153,-1.96921 0.5815187,-0.28249 1.2843226,-0.22324 1.8327862,0.14883 l 10.8080528,7.37376 c 1.6012936,1.0928 3.7592,0.89158 5.1332695,-0.47956 l 9.8365025,-9.84074 c 1.371142,-1.37114 1.575083,-3.5264 0.482318,-5.13044 l -7.373761,-10.80806 c -0.374826,-0.54846 -0.432717,-1.25264 -0.14883,-1.83554 0.741398,-1.52823 1.402856,-3.1254 1.969206,-4.7445 v -0.003 c 0.214975,-0.62424 0.767574,-1.09001 1.434535,-1.21405 l 12.82947,-2.42534 c 1.905811,-0.35966 3.287994,-2.03123 3.287994,-3.97158 V 138.2851 c 0.0069,-1.93753 -1.376644,-3.60504 -3.282491,-3.96593 M -29.382139,169.858 c -13.571008,0 -24.613306,-11.03947 -24.613306,-24.6133 0,-13.57101 11.042298,-24.61049 24.613306,-24.61049 13.571008,0 24.6133057,11.03948 24.6133057,24.61049 0,13.57383 -11.0422977,24.6133 -24.6133057,24.6133"
         id="path880"
         style="stroke-width:0.352778" />
      <path
         d="M 94.315894,56.803376 84.254671,54.900317 c -0.440972,-0.08131 -0.804756,-0.389996 -0.946714,-0.802005 -0.447852,-1.284323 -0.970139,-2.545221 -1.55441,-3.745442 -0.186033,-0.38033 -0.144695,-0.841975 0.09922,-1.203043 l 5.78097,-8.477603 c 0.920538,-1.350468 0.749652,-3.166745 -0.403755,-4.320116 L 79.514379,28.636505 C 78.35822,27.480346 76.539192,27.312212 75.194262,28.232751 l -8.474781,5.780969 c -0.359657,0.243914 -0.819926,0.285253 -1.203042,0.09922 -1.21405,-0.589809 -2.474948,-1.112062 -3.751087,-1.557197 -0.409292,-0.139181 -0.715186,-0.50299 -0.796501,-0.943962 L 59.065791,21.550557 C 58.764,19.946512 57.357006,18.782063 55.721281,18.782063 H 44.815509 c -1.632973,0 -3.038581,1.164449 -3.34451,2.768494 l -1.90306,10.061223 c -0.0813,0.440972 -0.385868,0.804756 -0.799253,0.946714 -1.287074,0.447852 -2.545221,0.970139 -3.748264,1.55441 -0.38033,0.186033 -0.839223,0.144695 -1.203043,-0.09922 l -8.472311,-5.78097 c -1.347717,-0.920538 -3.166745,-0.752404 -4.322939,0.403755 l -7.71278,7.715602 c -1.156159,1.153407 -1.324293,2.969684 -0.403754,4.322939 l 5.778147,8.474781 c 0.246669,0.359657 0.285252,0.822678 0.101974,1.200256 -0.589809,1.211298 -1.112062,2.472196 -1.557197,3.751086 -0.141936,0.409293 -0.50299,0.717973 -0.943962,0.799253 L 6.2233343,56.803447 C 4.619289,57.105238 3.4548401,58.512232 3.4548401,60.143829 v 10.912828 c 0,1.635725 1.1644489,3.041333 2.7684942,3.34451 l 10.0612227,1.90306 c 0.440972,0.0813 0.802005,0.389995 0.943962,0.799253 0.4451,1.276068 0.967388,2.536966 1.557197,3.745442 0.183278,0.383081 0.144695,0.846102 -0.101974,1.208546 l -5.78097,8.472311 c -0.917786,1.350468 -0.749652,3.169497 0.406506,4.322939 l 7.712781,7.715602 c 1.156158,1.15616 2.972435,1.32154 4.322939,0.40375 l 8.472311,-5.780965 c 0.359657,-0.243914 0.825429,-0.285252 1.203043,-0.09922 1.211297,0.587057 2.472196,1.112061 3.748264,1.554409 0.412044,0.141937 0.717973,0.505742 0.799253,0.946714 l 1.90306,10.061222 c 0.304546,1.6068 1.711536,2.77125 3.344509,2.77125 h 10.905773 c 1.635724,0 3.041332,-1.16858 3.344509,-2.77125 l 1.90306,-10.061222 c 0.08131,-0.440972 0.385868,-0.804756 0.799254,-0.946714 1.27194,-0.440972 2.532838,-0.964636 3.748263,-1.554409 0.383082,-0.186034 0.841975,-0.144696 1.203043,0.09922 l 8.474781,5.780965 c 1.347717,0.92054 3.166745,0.75241 4.320117,-0.40375 l 7.715602,-7.715602 c 1.153407,-1.153407 1.324293,-2.972435 0.403754,-4.322939 l -5.780969,-8.472311 c -0.243914,-0.363785 -0.285253,-0.82543 -0.09922,-1.205795 0.584271,-1.200256 1.106558,-2.461189 1.55441,-3.745441 0,-0.0028 0,-0.0028 0.0028,-0.0028 0.139181,-0.409292 0.502991,-0.717973 0.943963,-0.799253 l 10.0584,-1.90306 c 1.606797,-0.301791 2.771246,-1.708785 2.771246,-3.34451 v -10.91285 c 0,-1.631598 -1.164449,-3.038581 -2.768495,-3.340383 m -44.04781,28.096987 c -10.638367,0 -19.296592,-8.658225 -19.296592,-19.299414 0,-10.638367 8.658225,-19.296593 19.296592,-19.296593 10.638367,0 19.296592,8.658226 19.296592,19.296593 0,10.641189 -8.658225,19.299414 -19.296592,19.299414"
         id="path882"
         style="stroke-width:0.352778" />
      <path
         d="m 94.905032,165.59652 -6.905272,-1.305 c -0.183278,-0.0345 -0.333484,-0.15985 -0.392747,-0.32797 -0.311436,-0.89158 -0.673876,-1.76664 -1.083134,-2.60862 -0.07304,-0.15158 -0.05512,-0.33762 0.0441,-0.48232 l 3.971573,-5.82224 c 0.723476,-1.05971 0.587057,-2.49287 -0.322461,-3.39961 l -5.293077,-5.2959 c -0.912248,-0.91225 -2.341281,-1.04592 -3.402366,-0.31971 l -5.820833,3.96875 c -0.144695,0.10197 -0.330729,0.11851 -0.482318,0.0441 -0.846102,-0.4093 -1.71704,-0.77308 -2.611367,-1.08038 -0.165364,-0.0579 -0.290766,-0.20947 -0.325219,-0.39275 l -1.307747,-6.9081 c -0.2384,-1.26365 -1.344965,-2.17868 -2.629288,-2.17868 h -7.489472 c -1.284323,0 -2.390881,0.91503 -2.63204,2.17868 l -1.304995,6.9081 c -0.03447,0.18328 -0.159851,0.33348 -0.325219,0.38999 -0.894362,0.31144 -1.766641,0.67388 -2.608615,1.08314 -0.151586,0.073 -0.340375,0.0579 -0.48507,-0.0441 l -5.8166,-3.96875 c -1.063837,-0.72623 -2.495621,-0.59256 -3.402365,0.31971 l -5.2959,5.2959 c -0.909497,0.90674 -1.043164,2.33852 -0.319705,3.40236 l 3.96875,5.81942 c 0.101974,0.1447 0.115753,0.33073 0.0441,0.48232 -0.409293,0.84198 -0.773077,1.71704 -1.080382,2.61137 -0.05788,0.16536 -0.209462,0.29076 -0.392747,0.32522 l -6.908095,1.30499 c -1.260898,0.24116 -2.178685,1.34772 -2.178685,2.63204 v 7.4923 c 0,1.28432 0.917787,2.39088 2.178685,2.62928 l 6.910917,1.30775 c 0.180523,0.0345 0.330729,0.15985 0.385868,0.32522 0.311436,0.89436 0.673876,1.76664 1.083134,2.60862 0.07303,0.15158 0.05788,0.34037 -0.0441,0.48506 l -3.96875,5.81943 c -0.723477,1.06108 -0.58981,2.49287 0.319704,3.40236 l 5.293078,5.29308 c 0.909497,0.91225 2.341281,1.04592 3.405117,0.32246 l 5.8166,-3.97157 c 0.14883,-0.0992 0.333485,-0.11576 0.48507,-0.04 0.841974,0.4065 1.714288,0.77032 2.605863,1.08038 0.16812,0.0579 0.293522,0.20946 0.327974,0.39274 l 1.304996,6.9081 c 0.241155,1.2609 1.347717,2.17868 2.63204,2.17868 h 7.489472 c 1.284323,0 2.390881,-0.91778 2.629288,-2.17868 l 1.307747,-6.91092 c 0.03447,-0.18052 0.159851,-0.33073 0.325219,-0.38999 0.894362,-0.31144 1.766641,-0.67388 2.608615,-1.08039 0.154341,-0.0785 0.340374,-0.0606 0.48507,0.04 l 5.819422,3.97157 c 1.061085,0.72623 2.492869,0.58706 3.402365,-0.31971 l 5.293078,-5.2959 c 0.909496,-0.90949 1.045916,-2.33852 0.319705,-3.40236 l -3.965928,-5.8166 c -0.101974,-0.15159 -0.118512,-0.33348 -0.04685,-0.48507 0.409292,-0.84473 0.773077,-1.71704 1.083133,-2.61137 0.05788,-0.16536 0.206707,-0.29076 0.392748,-0.32522 L 94.902383,178.35 c 1.260898,-0.2384 2.178685,-1.34497 2.178685,-2.62929 v -7.4923 c 0.0028,-1.28294 -0.915035,-2.39088 -2.175933,-2.63204 m -30.304317,19.62891 c -7.303558,0 -13.24857,-5.9436 -13.24857,-13.25104 0,-7.30638 5.9436,-13.25103 13.24857,-13.25103 7.306381,0 13.248569,5.9436 13.248569,13.25103 0,7.30638 -5.942188,13.25104 -13.248569,13.25104"
         id="path884"
         style="stroke-width:0.352778" />
    </g>
    <text
       xml:space="preserve"
       style="font-size:4.23333px;line-height:1.25;font-family:arial;-inkscape-font-specification:arial;letter-spacing:0px;word-spacing:0px;stroke-width:0.264583;fill:#1a88a1;fill-opacity:1"
       x="30.421885"
       y="52.608677"
       id="text1940"><tspan
         sodipodi:role="line"
         id="tspan1938"
         style="stroke-width:0.264583;fill:#1a88a1;fill-opacity:1"
         x="30.421885"
         y="52.608677">your application</tspan></text>
    <text
       xml:space="preserve"
       style="font-size:16.4365px;line-height:1.25;font-family:arial;-inkscape-font-specification:arial;letter-spacing:0px;word-spacing:0px;stroke-width:1.02728"
       x="94.354019"
       y="52.454586"
       id="text1940-6"><tspan
         sodipodi:role="line"
         id="tspan1938-2"
         style="stroke-width:1.02728"
         x="94.354019"
         y="52.454586">API</tspan></text>
    <g
       id="g3546"
       transform="matrix(0.19336608,0,0,0.19336608,163.45865,54.023832)">
      <path
         d="m 26.74131,134.31924 -12.82947,-2.42535 c -0.668337,-0.1254 -1.219553,-0.58981 -1.434535,-1.2168 -0.566385,-1.62059 -1.229219,-3.2191 -1.973369,-4.74733 -0.281121,-0.58152 -0.223241,-1.28432 0.151585,-1.83279 l 7.373762,-10.80805 c 1.092799,-1.60405 0.888823,-3.76202 -0.482318,-5.13045 L 7.710462,98.317736 C 6.3393206,96.946595 4.179862,96.745406 2.5771925,97.83817 l -10.8080528,7.37129 c -0.5498395,0.37483 -1.2526434,0.43272 -1.8327867,0.15159 -1.539275,-0.7469 -3.137782,-1.41249 -4.750153,-1.96921 -0.62424,-0.21773 -1.090012,-0.76757 -1.216801,-1.43453 l -2.422595,-12.832296 c -0.363785,-1.90306 -2.031224,-3.285243 -3.96875,-3.285243 l -13.918142,-0.0028 c -1.940278,0 -3.607858,1.383559 -3.96875,3.285243 l -2.425347,12.832286 c -0.125402,0.66834 -0.592561,1.2168 -1.216801,1.43454 -1.609549,0.55809 -3.20668,1.22371 -4.744509,1.9692 -0.587057,0.2825 -1.289826,0.22049 -1.835538,-0.14883 l -10.808053,-7.376576 c -1.604045,-1.0928 -3.7592,-0.888824 -5.133269,0.482317 l -9.836503,9.840739 c -1.371141,1.37114 -1.575082,3.52918 -0.479566,5.13044 l 7.371292,10.80806 c 0.374826,0.54846 0.432717,1.25264 0.151585,1.83278 -0.746901,1.53928 -1.409736,3.13503 -1.969206,4.74733 -0.217731,0.62699 -0.767574,1.0928 -1.434535,1.2168 l -12.82947,2.42535 c -1.908598,0.35966 -3.292122,2.02847 -3.292122,3.96875 v 13.91532 c 0,1.94028 1.382183,3.61174 3.287995,3.97157 l 12.832291,2.42535 c 0.668338,0.1254 1.216801,0.59256 1.434536,1.21405 0.558094,1.6123 1.219553,3.20668 1.969205,4.74733 0.281122,0.58427 0.223242,1.28707 -0.151585,1.83554 l -7.371291,10.80805 c -1.095552,1.60129 -0.891576,3.7592 0.479566,5.13045 l 9.836503,9.84073 c 1.371141,1.36839 3.5306,1.57787 5.133269,0.47957 l 10.808053,-7.37129 c 0.552591,-0.37758 1.252643,-0.42997 1.835538,-0.15159 1.530985,0.74415 3.129527,1.40561 4.744508,1.96921 0.624241,0.21773 1.0928,0.76757 1.216801,1.43591 l 2.425348,12.82947 c 0.359657,1.90581 2.028472,3.28937 3.96875,3.28937 h 13.915319 c 1.937526,0 3.605036,-1.38356 3.96875,-3.28937 l 2.422596,-12.82947 c 0.128157,-0.66834 0.592561,-1.2168 1.216801,-1.43591 1.6123,-0.56085 3.210842,-1.22372 4.750153,-1.96921 0.5815187,-0.28249 1.2843226,-0.22324 1.8327862,0.14883 l 10.8080528,7.37376 c 1.6012936,1.0928 3.7592,0.89158 5.1332695,-0.47956 l 9.8365025,-9.84074 c 1.371142,-1.37114 1.575083,-3.5264 0.482318,-5.13044 l -7.373761,-10.80806 c -0.374826,-0.54846 -0.432717,-1.25264 -0.14883,-1.83554 0.741398,-1.52823 1.402856,-3.1254 1.969206,-4.7445 v -0.003 c 0.214975,-0.62424 0.767574,-1.09001 1.434535,-1.21405 l 12.82947,-2.42534 c 1.905811,-0.35966 3.287994,-2.03123 3.287994,-3.97158 V 138.2851 c 0.0069,-1.93753 -1.376644,-3.60504 -3.282491,-3.96593 M -29.382139,169.858 c -13.571008,0 -24.613306,-11.03947 -24.613306,-24.6133 0,-13.57101 11.042298,-24.61049 24.613306,-24.61049 13.571008,0 24.6133057,11.03948 24.6133057,24.61049 0,13.57383 -11.0422977,24.6133 -24.6133057,24.6133"
         id="path3540"
         style="stroke-width:0.352778" />
      <path
         d="M 94.315894,56.803376 84.254671,54.900317 c -0.440972,-0.08131 -0.804756,-0.389996 -0.946714,-0.802005 -0.447852,-1.284323 -0.970139,-2.545221 -1.55441,-3.745442 -0.186033,-0.38033 -0.144695,-0.841975 0.09922,-1.203043 l 5.78097,-8.477603 c 0.920538,-1.350468 0.749652,-3.166745 -0.403755,-4.320116 L 79.514379,28.636505 C 78.35822,27.480346 76.539192,27.312212 75.194262,28.232751 l -8.474781,5.780969 c -0.359657,0.243914 -0.819926,0.285253 -1.203042,0.09922 -1.21405,-0.589809 -2.474948,-1.112062 -3.751087,-1.557197 -0.409292,-0.139181 -0.715186,-0.50299 -0.796501,-0.943962 L 59.065791,21.550557 C 58.764,19.946512 57.357006,18.782063 55.721281,18.782063 H 44.815509 c -1.632973,0 -3.038581,1.164449 -3.34451,2.768494 l -1.90306,10.061223 c -0.0813,0.440972 -0.385868,0.804756 -0.799253,0.946714 -1.287074,0.447852 -2.545221,0.970139 -3.748264,1.55441 -0.38033,0.186033 -0.839223,0.144695 -1.203043,-0.09922 l -8.472311,-5.78097 c -1.347717,-0.920538 -3.166745,-0.752404 -4.322939,0.403755 l -7.71278,7.715602 c -1.156159,1.153407 -1.324293,2.969684 -0.403754,4.322939 l 5.778147,8.474781 c 0.246669,0.359657 0.285252,0.822678 0.101974,1.200256 -0.589809,1.211298 -1.112062,2.472196 -1.557197,3.751086 -0.141936,0.409293 -0.50299,0.717973 -0.943962,0.799253 L 6.2233343,56.803447 C 4.619289,57.105238 3.4548401,58.512232 3.4548401,60.143829 v 10.912828 c 0,1.635725 1.1644489,3.041333 2.7684942,3.34451 l 10.0612227,1.90306 c 0.440972,0.0813 0.802005,0.389995 0.943962,0.799253 0.4451,1.276068 0.967388,2.536966 1.557197,3.745442 0.183278,0.383081 0.144695,0.846102 -0.101974,1.208546 l -5.78097,8.472311 c -0.917786,1.350468 -0.749652,3.169497 0.406506,4.322939 l 7.712781,7.715602 c 1.156158,1.15616 2.972435,1.32154 4.322939,0.40375 l 8.472311,-5.780965 c 0.359657,-0.243914 0.825429,-0.285252 1.203043,-0.09922 1.211297,0.587057 2.472196,1.112061 3.748264,1.554409 0.412044,0.141937 0.717973,0.505742 0.799253,0.946714 l 1.90306,10.061222 c 0.304546,1.6068 1.711536,2.77125 3.344509,2.77125 h 10.905773 c 1.635724,0 3.041332,-1.16858 3.344509,-2.77125 l 1.90306,-10.061222 c 0.08131,-0.440972 0.385868,-0.804756 0.799254,-0.946714 1.27194,-0.440972 2.532838,-0.964636 3.748263,-1.554409 0.383082,-0.186034 0.841975,-0.144696 1.203043,0.09922 l 8.474781,5.780965 c 1.347717,0.92054 3.166745,0.75241 4.320117,-0.40375 l 7.715602,-7.715602 c 1.153407,-1.153407 1.324293,-2.972435 0.403754,-4.322939 l -5.780969,-8.472311 c -0.243914,-0.363785 -0.285253,-0.82543 -0.09922,-1.205795 0.584271,-1.200256 1.106558,-2.461189 1.55441,-3.745441 0,-0.0028 0,-0.0028 0.0028,-0.0028 0.139181,-0.409292 0.502991,-0.717973 0.943963,-0.799253 l 10.0584,-1.90306 c 1.606797,-0.301791 2.771246,-1.708785 2.771246,-3.34451 v -10.91285 c 0,-1.631598 -1.164449,-3.038581 -2.768495,-3.340383 m -44.04781,28.096987 c -10.638367,0 -19.296592,-8.658225 -19.296592,-19.299414 0,-10.638367 8.658225,-19.296593 19.296592,-19.296593 10.638367,0 19.296592,8.658226 19.296592,19.296593 0,10.641189 -8.658225,19.299414 -19.296592,19.299414"
         id="path3542"
         style="stroke-width:0.352778" />
      <path
         d="m 94.905032,165.59652 -6.905272,-1.305 c -0.183278,-0.0345 -0.333484,-0.15985 -0.392747,-0.32797 -0.311436,-0.89158 -0.673876,-1.76664 -1.083134,-2.60862 -0.07304,-0.15158 -0.05512,-0.33762 0.0441,-0.48232 l 3.971573,-5.82224 c 0.723476,-1.05971 0.587057,-2.49287 -0.322461,-3.39961 l -5.293077,-5.2959 c -0.912248,-0.91225 -2.341281,-1.04592 -3.402366,-0.31971 l -5.820833,3.96875 c -0.144695,0.10197 -0.330729,0.11851 -0.482318,0.0441 -0.846102,-0.4093 -1.71704,-0.77308 -2.611367,-1.08038 -0.165364,-0.0579 -0.290766,-0.20947 -0.325219,-0.39275 l -1.307747,-6.9081 c -0.2384,-1.26365 -1.344965,-2.17868 -2.629288,-2.17868 h -7.489472 c -1.284323,0 -2.390881,0.91503 -2.63204,2.17868 l -1.304995,6.9081 c -0.03447,0.18328 -0.159851,0.33348 -0.325219,0.38999 -0.894362,0.31144 -1.766641,0.67388 -2.608615,1.08314 -0.151586,0.073 -0.340375,0.0579 -0.48507,-0.0441 l -5.8166,-3.96875 c -1.063837,-0.72623 -2.495621,-0.59256 -3.402365,0.31971 l -5.2959,5.2959 c -0.909497,0.90674 -1.043164,2.33852 -0.319705,3.40236 l 3.96875,5.81942 c 0.101974,0.1447 0.115753,0.33073 0.0441,0.48232 -0.409293,0.84198 -0.773077,1.71704 -1.080382,2.61137 -0.05788,0.16536 -0.209462,0.29076 -0.392747,0.32522 l -6.908095,1.30499 c -1.260898,0.24116 -2.178685,1.34772 -2.178685,2.63204 v 7.4923 c 0,1.28432 0.917787,2.39088 2.178685,2.62928 l 6.910917,1.30775 c 0.180523,0.0345 0.330729,0.15985 0.385868,0.32522 0.311436,0.89436 0.673876,1.76664 1.083134,2.60862 0.07303,0.15158 0.05788,0.34037 -0.0441,0.48506 l -3.96875,5.81943 c -0.723477,1.06108 -0.58981,2.49287 0.319704,3.40236 l 5.293078,5.29308 c 0.909497,0.91225 2.341281,1.04592 3.405117,0.32246 l 5.8166,-3.97157 c 0.14883,-0.0992 0.333485,-0.11576 0.48507,-0.04 0.841974,0.4065 1.714288,0.77032 2.605863,1.08038 0.16812,0.0579 0.293522,0.20946 0.327974,0.39274 l 1.304996,6.9081 c 0.241155,1.2609 1.347717,2.17868 2.63204,2.17868 h 7.489472 c 1.284323,0 2.390881,-0.91778 2.629288,-2.17868 l 1.307747,-6.91092 c 0.03447,-0.18052 0.159851,-0.33073 0.325219,-0.38999 0.894362,-0.31144 1.766641,-0.67388 2.608615,-1.08039 0.154341,-0.0785 0.340374,-0.0606 0.48507,0.04 l 5.819422,3.97157 c 1.061085,0.72623 2.492869,0.58706 3.402365,-0.31971 l 5.293078,-5.2959 c 0.909496,-0.90949 1.045916,-2.33852 0.319705,-3.40236 l -3.965928,-5.8166 c -0.101974,-0.15159 -0.118512,-0.33348 -0.04685,-0.48507 0.409292,-0.84473 0.773077,-1.71704 1.083133,-2.61137 0.05788,-0.16536 0.206707,-0.29076 0.392748,-0.32522 L 94.902383,178.35 c 1.260898,-0.2384 2.178685,-1.34497 2.178685,-2.62929 v -7.4923 c 0.0028,-1.28294 -0.915035,-2.39088 -2.175933,-2.63204 m -30.304317,19.62891 c -7.303558,0 -13.24857,-5.9436 -13.24857,-13.25104 0,-7.30638 5.9436,-13.25103 13.24857,-13.25103 7.306381,0 13.248569,5.9436 13.248569,13.25103 0,7.30638 -5.942188,13.25104 -13.248569,13.25104"
         id="path3544"
         style="stroke-width:0.352778" />
    </g>
    <text
       xml:space="preserve"
       style="font-size:4.23333px;line-height:1.25;font-family:arial;-inkscape-font-specification:arial;text-align:center;letter-spacing:0px;word-spacing:0px;text-anchor:middle;stroke-width:0.264583;stroke:none;stroke-opacity:1;fill:#1a88a1;fill-opacity:1"
       x="167.28264"
       y="52.608509"
       id="text3550"><tspan
         sodipodi:role="line"
         style="text-align:center;text-anchor:middle;stroke-width:0.264583;stroke:none;stroke-opacity:1;fill:#1a88a1;fill-opacity:1"
         x="167.28264"
         y="52.608509"
         id="tspan3790">another application</tspan></text>
    <path
       style="fill:none;stroke:#000000;stroke-width:1;stroke-linecap:butt;stroke-linejoin:miter;stroke-miterlimit:4;stroke-dasharray:none;stroke-opacity:1;marker-end:url(#Arrow2Mend)"
       d="M 67.468749,72.760416 H 88.635416"
       id="path9930" />
    <path
       style="fill:none;stroke:#000000;stroke-width:1;stroke-linecap:butt;stroke-linejoin:miter;stroke-miterlimit:4;stroke-dasharray:none;stroke-opacity:1;marker-end:url(#Arrow2Mend)"
       d="M 146.40585,72.760416 H 125.23918"
       id="path10280" />
    <text
       xml:space="preserve"
       style="font-size:3.52778px;line-height:1.25;font-family:arial;-inkscape-font-specification:arial;letter-spacing:0px;word-spacing:0px;stroke-width:0.264583;fill:#1a88a1;fill-opacity:1"
       x="70.282181"
       y="79.424896"
       id="text10284"><tspan
         sodipodi:role="line"
         id="tspan10282"
         style="font-style:italic;font-size:3.52778px;stroke-width:0.264583;fill:#1a88a1;fill-opacity:1"
         x="70.282181"
         y="79.424896">requests</tspan></text>
    <text
       xml:space="preserve"
       style="font-size:3.52778px;line-height:1.25;font-family:arial;-inkscape-font-specification:arial;letter-spacing:0px;word-spacing:0px;stroke-width:0.264583;fill:#1a88a1;fill-opacity:1"
       x="128.84508"
       y="79.424896"
       id="text12172"><tspan
         sodipodi:role="line"
         id="tspan12170"
         style="font-style:italic;font-size:3.52778px;stroke-width:0.264583;fill:#1a88a1;fill-opacity:1"
         x="128.84508"
         y="79.424896">responses</tspan></text>
    <text
       xml:space="preserve"
       style="font-size:4.23333px;line-height:1.25;font-family:arial;-inkscape-font-specification:arial;letter-spacing:0px;word-spacing:0px;stroke-width:0.264583;fill:#1a88a1;fill-opacity:1"
       x="99.048271"
       y="37.25317"
       id="text16052"><tspan
         sodipodi:role="line"
         id="tspan16050"
         style="stroke-width:0.264583;fill:#1a88a1;fill-opacity:1"
         x="99.048271"
         y="37.25317">interface</tspan></text>
    <text
       xml:space="preserve"
       style="font-size:4.23333px;line-height:1.25;font-family:arial;-inkscape-font-specification:arial;letter-spacing:0px;word-spacing:0px;stroke-width:0.264583;fill:#1a88a1;fill-opacity:1"
       x="40.554932"
       y="102.1556"
       id="text17082"><tspan
         sodipodi:role="line"
         id="tspan17080"
         style="font-weight:bold;stroke-width:0.264583;fill:#1a88a1;fill-opacity:1"
         x="40.554932"
         y="102.1556">client</tspan></text>
    <text
       xml:space="preserve"
       style="font-size:4.23333px;line-height:1.25;font-family:arial;-inkscape-font-specification:arial;letter-spacing:0px;word-spacing:0px;stroke-width:0.264583;fill:#1a88a1;fill-opacity:1"
       x="162.63992"
       y="102.1556"
       id="text18628"><tspan
         sodipodi:role="line"
         id="tspan18626"
         style="font-weight:bold;stroke-width:0.264583;fill:#1a88a1;fill-opacity:1"
         x="162.63992"
         y="102.1556">server</tspan></text>
  </g>
  <style
     type="text/css"
     id="style868">
	.st0{fill:#FF4500;}
	.st1{fill:#222222;}
	.st2{fill:#FFFFFF;}
	.st3{display:none;}
	.st4{display:inline;fill:none;stroke:#D8D8D8;stroke-width:0.4925;stroke-miterlimit:10;}
	.st5{display:inline;fill:none;stroke:#D8D8D8;stroke-width:0.5589;stroke-miterlimit:10;}
	.st6{display:inline;}
</style>
  <style
     type="text/css"
     id="style28637">
	.st0{fill:#1D9BF0;}
</style>
</svg>
